<svg xmlns="http://www.w3.org/2000/svg" viewBox="0 0 100 100" width="100" height="100"><defs><radialGradient id="halo" cx="50%" cy="52%" r="52%"><stop offset="0" stop-color="#4DABF7" stop-opacity="0.9"/><stop offset="0.55" stop-color="#4DABF7" stop-opacity="0.4"/><stop offset="1" stop-color="#4DABF7" stop-opacity="0"/></radialGradient><linearGradient id="m" x1="0" y1="0" x2="0" y2="1"><stop offset="0" stop-color="#A5D8FF" stop-opacity="1"/><stop offset="1" stop-color="#1971C2" stop-opacity="1"/></linearGradient></defs><circle cx="50" cy="52" r="52" fill="url(#halo)"/><ellipse cx="50" cy="92" rx="22" ry="4.5" fill="#000000" opacity="0.11"/><g fill="none" stroke="url(#m)" stroke-width="6" stroke-linecap="round" stroke-linejoin="round"><circle cx="50" cy="16" r="7"/><path d="M50 23 L50 80"/><path d="M34 34 L66 34"/><path d="M27 56 C28 70 38 78 49 79"/><path d="M73 56 C72 70 62 78 51 79"/></g><path d="M27 56 L17 50 L18 66 Z" fill="url(#m)"/><path d="M73 56 L83 50 L82 66 Z" fill="url(#m)"/><path d="M50 78 L45 86 L55 86 Z" fill="url(#m)"/><circle cx="50" cy="16" r="3" fill="#1971C2"/><circle cx="46" cy="13" r="1.5" fill="#FFFFFF" opacity="0.7"/><path d="M70 35.5 L70.81 39.19 L74.5 40 L70.81 40.81 L70 44.5 L69.19 40.81 L65.5 40 L69.19 39.19 Z" fill="#FFFFFF" opacity="0.9"/><path d="M30 69 L30.54 71.46 L33 72 L30.54 72.54 L30 75 L29.46 72.54 L27 72 L29.46 71.46 Z" fill="#FFFFFF" opacity="0.75"/></svg>