<svg xmlns="http://www.w3.org/2000/svg" viewBox="0 0 100 100" width="100" height="100">
  <defs>
    <radialGradient id="aHaloW" cx="50%" cy="54%" r="52%">
      <stop offset="0" stop-color="#FF8787" stop-opacity="0.85"/>
      <stop offset="55%" stop-color="#FF6B6B" stop-opacity="0.38"/>
      <stop offset="100%" stop-color="#FF6B6B" stop-opacity="0"/>
    </radialGradient>
    <radialGradient id="aBody" cx="37%" cy="30%" r="82%">
      <stop offset="0" stop-color="#FFD0D0"/>
      <stop offset="36%" stop-color="#FF5252"/>
      <stop offset="100%" stop-color="#990F0F"/>
    </radialGradient>
    <linearGradient id="aVol" x1="0" y1="0" x2="0" y2="1">
      <stop offset="45%" stop-color="#6A0A0A" stop-opacity="0"/>
      <stop offset="100%" stop-color="#5A0808" stop-opacity="0.5"/>
    </linearGradient>
    <linearGradient id="aLeaf" x1="0" y1="0" x2="1" y2="1">
      <stop offset="0" stop-color="#D3F9D8"/>
      <stop offset="100%" stop-color="#2B8A3E"/>
    </linearGradient>
    <linearGradient id="aShine" x1="0" y1="0" x2="0" y2="1">
      <stop offset="0" stop-color="#FFFFFF" stop-opacity="0.98"/>
      <stop offset="100%" stop-color="#FFFFFF" stop-opacity="0"/>
    </linearGradient>
  </defs>
  <circle cx="50" cy="55" r="52" fill="url(#aHaloW)"/>
  <ellipse cx="50" cy="92" rx="22" ry="4.5" fill="#000000" opacity="0.12"/>
  <path d="M50 30 C51 20 54 15 60 12" fill="none" stroke="#7B4B2A" stroke-width="5" stroke-linecap="round"/>
  <path d="M52 25 C61 13 76 16 80 22 C71 31 58 31 52 25 Z" fill="url(#aLeaf)"/>
  <path d="M56 24 C64 19 72 20 78 22" fill="none" stroke="#FFFFFF" stroke-opacity="0.6" stroke-width="1.6" stroke-linecap="round"/>
  <path id="abody" d="M50 32 C40 23 21 25 17 44 C13 63 26 86 40 87 C45 88 48 85 50 85 C52 85 55 88 60 87 C74 86 87 63 83 44 C79 25 60 23 50 32 Z" fill="url(#aBody)"/>
  <path d="M50 32 C40 23 21 25 17 44 C13 63 26 86 40 87 C45 88 48 85 50 85 C52 85 55 88 60 87 C74 86 87 63 83 44 C79 25 60 23 50 32 Z" fill="url(#aVol)"/>
  <path d="M75 62 C81 54 81 45 79 39" fill="none" stroke="#FFFFFF" stroke-opacity="0.4" stroke-width="3.2" stroke-linecap="round"/>
  <path d="M28 37 C21 47 21 60 28 68 C33 58 34 47 41 38 C36 35 31 35 28 37 Z" fill="url(#aShine)"/>
  <ellipse cx="32" cy="42" rx="4.2" ry="6.2" fill="#FFFFFF"/>
  <path d="M65 38 L66.6 44.4 L73 46 L66.6 47.6 L65 54 L63.4 47.6 L57 46 L63.4 44.4 Z" fill="#FFFFFF"/>
  <path d="M57 64 L57.9 68.1 L62 69 L57.9 69.9 L57 74 L56.1 69.9 L52 69 L56.1 68.1 Z" fill="#FFFFFF" opacity="0.92"/>
</svg>
