<svg xmlns="http://www.w3.org/2000/svg" viewBox="0 0 100 100" width="100" height="100"><defs><radialGradient id="halo" cx="50%" cy="52%" r="52%"><stop offset="0" stop-color="#A5D8FF" stop-opacity="0.9"/><stop offset="0.55" stop-color="#A5D8FF" stop-opacity="0.4"/><stop offset="1" stop-color="#A5D8FF" stop-opacity="0"/></radialGradient><linearGradient id="s" x1="0" y1="0" x2="0" y2="1"><stop offset="0" stop-color="#FFFFFF" stop-opacity="1"/><stop offset="1" stop-color="#CED4DA" stop-opacity="1"/></linearGradient></defs><circle cx="50" cy="52" r="52" fill="url(#halo)"/><ellipse cx="50" cy="92" rx="22" ry="4.5" fill="#000000" opacity="0.11"/><rect x="34" y="50" width="32" height="30" rx="12" fill="url(#s)"/><circle cx="50" cy="40" r="20" fill="url(#s)"/><path d="M38 40 a12 9 0 0 1 24 0 a12 9 0 0 1 -24 0 Z" fill="#1A1A2E"/><ellipse cx="44" cy="38" rx="4" ry="6" fill="#74C0FC" opacity="0.8"/><rect x="44" y="58" width="12" height="10" rx="2" fill="#FF6B6B"/><path d="M72 26 L72.72 29.28 L76 30 L72.72 30.72 L72 34 L71.28 30.72 L68 30 L71.28 29.28 Z" fill="#FFFFFF" opacity="0.85"/></svg>