<svg xmlns="http://www.w3.org/2000/svg" viewBox="0 0 100 100" width="100" height="100"><defs><radialGradient id="halo" cx="50%" cy="52%" r="52%"><stop offset="0" stop-color="#4DABF7" stop-opacity="0.9"/><stop offset="0.55" stop-color="#4DABF7" stop-opacity="0.4"/><stop offset="1" stop-color="#4DABF7" stop-opacity="0"/></radialGradient><linearGradient id="v" x1="0" y1="0" x2="0" y2="1"><stop offset="0.42" stop-color="#1A1A2E" stop-opacity="0"/><stop offset="1" stop-color="#1A1A2E" stop-opacity="0.5"/></linearGradient></defs><circle cx="50" cy="52" r="52" fill="url(#halo)"/><ellipse cx="50" cy="92" rx="22" ry="4.5" fill="#000000" opacity="0.11"/><circle cx="50" cy="52" r="30" fill="#FFFFFF"/><path d="M50 52 L50.0 22.0 A30 30 0 0 1 76.0 37.0 Z" fill="#FF6B6B"/><path d="M50 52 L76.0 37.0 A30 30 0 0 1 76.0 67.0 Z" fill="#FFD43B"/><path d="M50 52 L76.0 67.0 A30 30 0 0 1 50.0 82.0 Z" fill="#51CF66"/><path d="M50 52 L50.0 82.0 A30 30 0 0 1 24.0 67.0 Z" fill="#4DABF7"/><path d="M50 52 L24.0 67.0 A30 30 0 0 1 24.0 37.0 Z" fill="#E599F7"/><path d="M50 52 L24.0 37.0 A30 30 0 0 1 50.0 22.0 Z" fill="#FF922B"/><circle cx="50" cy="52" r="30" fill="url(#v)"/><ellipse cx="40" cy="42" rx="9" ry="12" fill="#FFFFFF" opacity="0.35"/><circle cx="50" cy="52" r="5.5" fill="#FFFFFF"/><circle cx="50" cy="52" r="5.5" fill="url(#v)"/><path d="M68 35 L68.9 39.1 L73 40 L68.9 40.9 L68 45 L67.1 40.9 L63 40 L67.1 39.1 Z" fill="#FFFFFF" opacity="0.9"/><path d="M40 68.5 L40.63 71.37 L43.5 72 L40.63 72.63 L40 75.5 L39.37 72.63 L36.5 72 L39.37 71.37 Z" fill="#FFFFFF" opacity="0.8"/></svg>