<svg xmlns="http://www.w3.org/2000/svg" viewBox="0 0 100 100" width="100" height="100"><defs><radialGradient id="halo" cx="50%" cy="52%" r="52%"><stop offset="0" stop-color="#FF8787" stop-opacity="0.9"/><stop offset="0.55" stop-color="#FF8787" stop-opacity="0.4"/><stop offset="1" stop-color="#FF8787" stop-opacity="0"/></radialGradient><radialGradient id="b" cx="40%" cy="32%" r="80%"><stop offset="0" stop-color="#FFC9C9" stop-opacity="1"/><stop offset="45" stop-color="#FA5252" stop-opacity="1"/><stop offset="100" stop-color="#C92A2A" stop-opacity="1"/></radialGradient></defs><circle cx="50" cy="52" r="52" fill="url(#halo)"/><ellipse cx="50" cy="92" rx="22" ry="4.5" fill="#000000" opacity="0.11"/><path d="M50 18 C30 18 26 48 50 64 C74 48 70 18 50 18 Z" fill="url(#b)"/><path d="M48 64 L52 64 L50 70 Z" fill="#C92A2A"/><path d="M50 70 Q56 80 48 88" stroke="#ADB5BD" stroke-width="2" fill="none"/><ellipse cx="42" cy="34" rx="6" ry="9" fill="#FFFFFF" opacity="0.5"/><path d="M66 26 L66.72 29.28 L70 30 L66.72 30.72 L66 34 L65.28 30.72 L62 30 L65.28 29.28 Z" fill="#FFFFFF" opacity="0.85"/></svg>