<svg xmlns="http://www.w3.org/2000/svg" viewBox="0 0 100 100" width="100" height="100"><defs><radialGradient id="halo" cx="50%" cy="52%" r="52%"><stop offset="0" stop-color="#FFE066" stop-opacity="0.9"/><stop offset="0.55" stop-color="#FFE066" stop-opacity="0.4"/><stop offset="1" stop-color="#FFE066" stop-opacity="0"/></radialGradient><linearGradient id="b" x1="0" y1="0" x2="1" y2="1"><stop offset="0" stop-color="#FFF3BF" stop-opacity="1"/><stop offset="55" stop-color="#FFD43B" stop-opacity="1"/><stop offset="100" stop-color="#E8A100" stop-opacity="1"/></linearGradient></defs><circle cx="50" cy="52" r="52" fill="url(#halo)"/><ellipse cx="50" cy="92" rx="22" ry="4.5" fill="#000000" opacity="0.11"/><path d="M30 36 C34 70 60 80 78 62 C73 66 66 66 60 63 C45 56 41 40 39 35 C37 31 31 32 30 36 Z" fill="url(#b)"/><circle cx="31" cy="35" r="3.4" fill="#8C6D1F"/><circle cx="77" cy="62" r="3" fill="#8C6D1F"/><path d="M36 40 C40 62 58 70 70 62" stroke="#FFF" stroke-width="2.2" fill="none" opacity="0.35"/><path d="M52 39.5 L52.81 43.19 L56.5 44 L52.81 44.81 L52 48.5 L51.19 44.81 L47.5 44 L51.19 43.19 Z" fill="#FFFFFF" opacity="0.9"/><path d="M66 55 L66.54 57.46 L69 58 L66.54 58.54 L66 61 L65.46 58.54 L63 58 L65.46 57.46 Z" fill="#FFFFFF" opacity="0.8"/></svg>