<svg xmlns="http://www.w3.org/2000/svg" viewBox="0 0 100 100" width="100" height="100"><defs><radialGradient id="halo" cx="50%" cy="52%" r="52%"><stop offset="0" stop-color="#FFD43B" stop-opacity="0.9"/><stop offset="0.55" stop-color="#FFD43B" stop-opacity="0.4"/><stop offset="1" stop-color="#FFD43B" stop-opacity="0"/></radialGradient><linearGradient id="b" x1="0" y1="0" x2="0" y2="1"><stop offset="0" stop-color="#FFE066" stop-opacity="1"/><stop offset="1" stop-color="#F59F00" stop-opacity="1"/></linearGradient></defs><circle cx="50" cy="52" r="52" fill="url(#halo)"/><ellipse cx="50" cy="92" rx="22" ry="4.5" fill="#000000" opacity="0.11"/><ellipse cx="50" cy="56" rx="22" ry="16" fill="url(#b)"/><path d="M44 42 L46 70 M54 42 L56 70" stroke="#343A40" stroke-width="5"/><path d="M72 56 L84 62 Z" fill="#343A40"/><ellipse cx="38" cy="40" rx="11" ry="8" fill="#FFFFFF" opacity="0.7" transform="rotate(-25 38 40)"/><ellipse cx="58" cy="38" rx="11" ry="8" fill="#FFFFFF" opacity="0.7" transform="rotate(25 58 38)"/><circle cx="34" cy="52" r="3" fill="#343A40"/><path d="M32 44 L28 36 M40 44 L44 36" stroke="#343A40" stroke-width="2" stroke-linecap="round"/><path d="M72 42 L72.72 45.28 L76 46 L72.72 46.72 L72 50 L71.28 46.72 L68 46 L71.28 45.28 Z" fill="#FFFFFF" opacity="0.8"/></svg>