<svg xmlns="http://www.w3.org/2000/svg" viewBox="0 0 100 100" width="100" height="100"><defs><radialGradient id="halo" cx="50%" cy="52%" r="52%"><stop offset="0" stop-color="#FFD43B" stop-opacity="0.9"/><stop offset="0.55" stop-color="#FFD43B" stop-opacity="0.4"/><stop offset="1" stop-color="#FFD43B" stop-opacity="0"/></radialGradient><radialGradient id="b" cx="40%" cy="32%" r="80%"><stop offset="0" stop-color="#FFF3BF" stop-opacity="1"/><stop offset="50" stop-color="#FFD43B" stop-opacity="1"/><stop offset="100" stop-color="#E8950C" stop-opacity="1"/></radialGradient></defs><circle cx="50" cy="52" r="52" fill="url(#halo)"/><ellipse cx="50" cy="92" rx="22" ry="4.5" fill="#000000" opacity="0.11"/><rect x="46" y="18" width="8" height="8" rx="3" fill="#E8950C"/><path d="M50 24 C34 24 32 44 28 62 Q26 70 24 72 L76 72 Q74 70 72 62 C68 44 66 24 50 24 Z" fill="url(#b)"/><rect x="24" y="70" width="52" height="7" rx="3.5" fill="#E8950C"/><circle cx="50" cy="82" r="5" fill="#C77800"/><path d="M40 34 C36 42 35 54 35 62" stroke="#FFFFFF" stroke-width="3" opacity="0.4" fill="none" stroke-linecap="round"/><path d="M66 29.5 L66.81 33.19 L70.5 34 L66.81 34.81 L66 38.5 L65.19 34.81 L61.5 34 L65.19 33.19 Z" fill="#FFFFFF" opacity="0.9"/><path d="M38 59 L38.54 61.46 L41 62 L38.54 62.54 L38 65 L37.46 62.54 L35 62 L37.46 61.46 Z" fill="#FFFFFF" opacity="0.8"/></svg>