<svg xmlns="http://www.w3.org/2000/svg" viewBox="0 0 100 100" width="100" height="100"><defs><radialGradient id="halo" cx="50%" cy="52%" r="52%"><stop offset="0" stop-color="#F0C27B" stop-opacity="0.9"/><stop offset="0.55" stop-color="#F0C27B" stop-opacity="0.4"/><stop offset="1" stop-color="#F0C27B" stop-opacity="0"/></radialGradient><linearGradient id="b" x1="0" y1="0" x2="0" y2="1"><stop offset="0" stop-color="#F6D8A6" stop-opacity="1"/><stop offset="100" stop-color="#C98A45" stop-opacity="1"/></linearGradient></defs><circle cx="50" cy="52" r="52" fill="url(#halo)"/><ellipse cx="50" cy="92" rx="22" ry="4.5" fill="#000000" opacity="0.11"/><path d="M22 64 Q22 38 50 38 Q78 38 78 64 L78 70 Q78 76 72 76 L28 76 Q22 76 22 70 Z" fill="url(#b)"/><path d="M40 44 L34 70 M52 42 L48 72 M64 44 L60 70" stroke="#A6713A" stroke-width="2" opacity="0.5" fill="none"/><ellipse cx="40" cy="48" rx="12" ry="6" fill="#FFF" opacity="0.2"/><path d="M66 41.5 L66.81 45.19 L70.5 46 L66.81 46.81 L66 50.5 L65.19 46.81 L61.5 46 L65.19 45.19 Z" fill="#FFFFFF" opacity="0.9"/><path d="M32 63 L32.54 65.46 L35 66 L32.54 66.54 L32 69 L31.46 66.54 L29 66 L31.46 65.46 Z" fill="#FFFFFF" opacity="0.8"/></svg>