<svg xmlns="http://www.w3.org/2000/svg" viewBox="0 0 100 100" width="100" height="100"><defs><radialGradient id="halo" cx="50%" cy="52%" r="52%"><stop offset="0" stop-color="#FF6B6B" stop-opacity="0.9"/><stop offset="0.55" stop-color="#FF6B6B" stop-opacity="0.4"/><stop offset="1" stop-color="#FF6B6B" stop-opacity="0"/></radialGradient><radialGradient id="b" cx="40%" cy="30%" r="82%"><stop offset="0" stop-color="#FF8787" stop-opacity="1"/><stop offset="45" stop-color="#FA5252" stop-opacity="1"/><stop offset="100" stop-color="#C92A2A" stop-opacity="1"/></radialGradient></defs><circle cx="50" cy="52" r="52" fill="url(#halo)"/><ellipse cx="50" cy="92" rx="22" ry="4.5" fill="#000000" opacity="0.11"/><path d="M40 30 L42 24 M60 30 L58 24" stroke="#222" stroke-width="2.2" stroke-linecap="round"/><circle cx="40" cy="22" r="2.4" fill="#222"/><circle cx="60" cy="22" r="2.4" fill="#222"/><ellipse cx="50" cy="56" rx="25" ry="22" fill="url(#b)"/><path d="M50 36 A20 20 0 0 0 31 44 A25 22 0 0 1 50 34 Z" fill="#222"/><path d="M50 36 A20 20 0 0 1 69 44 A25 22 0 0 0 50 34 Z" fill="#222"/><path d="M28 40 A28 28 0 0 0 28 50 Q40 46 40 40 Z" fill="#222"/><path d="M36 38 A18 14 0 0 1 64 38 L64 40 A24 22 0 0 0 36 40 Z" fill="#222"/><path d="M50 36 L50 78" stroke="#222" stroke-width="2.4"/><circle cx="40" cy="52" r="3.6" fill="#222"/><circle cx="60" cy="52" r="3.6" fill="#222"/><circle cx="36" cy="66" r="3" fill="#222"/><circle cx="64" cy="66" r="3" fill="#222"/><circle cx="43" cy="40" r="2.4" fill="#FFF"/><circle cx="57" cy="40" r="2.4" fill="#FFF"/><ellipse cx="40" cy="48" rx="6" ry="8" fill="#FFFFFF" opacity="0.18"/><path d="M70 41.5 L70.81 45.19 L74.5 46 L70.81 46.81 L70 50.5 L69.19 46.81 L65.5 46 L69.19 45.19 Z" fill="#FFFFFF" opacity="0.9"/><path d="M30 59 L30.54 61.46 L33 62 L30.54 62.54 L30 65 L29.46 62.54 L27 62 L29.46 61.46 Z" fill="#FFFFFF" opacity="0.8"/></svg>