<svg xmlns="http://www.w3.org/2000/svg" viewBox="0 0 100 100" width="100" height="100"><defs><radialGradient id="halo" cx="50%" cy="52%" r="52%"><stop offset="0" stop-color="#FFD43B" stop-opacity="0.9"/><stop offset="0.55" stop-color="#FFD43B" stop-opacity="0.4"/><stop offset="1" stop-color="#FFD43B" stop-opacity="0"/></radialGradient><linearGradient id="b" x1="0" y1="0" x2="0" y2="1"><stop offset="0" stop-color="#FFE066" stop-opacity="1"/><stop offset="1" stop-color="#F08C00" stop-opacity="1"/></linearGradient></defs><circle cx="50" cy="52" r="52" fill="url(#halo)"/><ellipse cx="50" cy="92" rx="22" ry="4.5" fill="#000000" opacity="0.11"/><rect x="20" y="34" width="60" height="40" rx="8" fill="url(#b)"/><rect x="26" y="42" width="14" height="12" rx="2" fill="#D0EBFF"/><rect x="44" y="42" width="14" height="12" rx="2" fill="#D0EBFF"/><rect x="62" y="42" width="12" height="12" rx="2" fill="#D0EBFF"/><rect x="22" y="60" width="56" height="5" fill="#E8590C"/><circle cx="34" cy="76" r="7" fill="#343A40"/><circle cx="66" cy="76" r="7" fill="#343A40"/><path d="M70 34 L70.72 37.28 L74 38 L70.72 38.72 L70 42 L69.28 38.72 L66 38 L69.28 37.28 Z" fill="#FFFFFF" opacity="0.8"/></svg>