<svg xmlns="http://www.w3.org/2000/svg" viewBox="0 0 100 100" width="100" height="100"><defs><radialGradient id="halo" cx="50%" cy="52%" r="52%"><stop offset="0" stop-color="#51CF66" stop-opacity="0.9"/><stop offset="0.55" stop-color="#51CF66" stop-opacity="0.4"/><stop offset="1" stop-color="#51CF66" stop-opacity="0"/></radialGradient><linearGradient id="g" x1="0" y1="0" x2="0" y2="1"><stop offset="0" stop-color="#69DB7C" stop-opacity="1"/><stop offset="1" stop-color="#2F9E44" stop-opacity="1"/></linearGradient></defs><circle cx="50" cy="52" r="52" fill="url(#halo)"/><ellipse cx="50" cy="92" rx="22" ry="4.5" fill="#000000" opacity="0.11"/><rect x="44" y="30" width="12" height="50" rx="6" fill="url(#g)"/><path d="M44 50 L34 50 Q28 50 28 42 L28 38" fill="none" stroke="url(#g)" stroke-width="9" stroke-linecap="round"/><path d="M56 56 L66 56 Q72 56 72 48 L72 44" fill="none" stroke="url(#g)" stroke-width="9" stroke-linecap="round"/><rect x="38" y="78" width="24" height="8" rx="3" fill="#E8950C"/><circle cx="48" cy="40" r="3" fill="#FF6B6B"/><path d="M70 36 L70.72 39.28 L74 40 L70.72 40.72 L70 44 L69.28 40.72 L66 40 L69.28 39.28 Z" fill="#FFFFFF" opacity="0.8"/></svg>