<svg xmlns="http://www.w3.org/2000/svg" viewBox="0 0 100 100" width="100" height="100"><defs><radialGradient id="halo" cx="50%" cy="52%" r="52%"><stop offset="0" stop-color="#FFA8C5" stop-opacity="0.9"/><stop offset="0.55" stop-color="#FFA8C5" stop-opacity="0.4"/><stop offset="1" stop-color="#FFA8C5" stop-opacity="0"/></radialGradient><linearGradient id="cream" x1="0" y1="0" x2="0" y2="1"><stop offset="0" stop-color="#FFF0F6" stop-opacity="1"/><stop offset="1" stop-color="#FFC9DE" stop-opacity="1"/></linearGradient><linearGradient id="base" x1="0" y1="0" x2="0" y2="1"><stop offset="0" stop-color="#FFE3A3" stop-opacity="1"/><stop offset="1" stop-color="#E8950C" stop-opacity="1"/></linearGradient></defs><circle cx="50" cy="52" r="52" fill="url(#halo)"/><ellipse cx="50" cy="92" rx="22" ry="4.5" fill="#000000" opacity="0.11"/><rect x="22" y="58" width="56" height="22" rx="6" fill="url(#base)"/><rect x="28" y="42" width="44" height="20" rx="6" fill="url(#cream)"/><path d="M28 50 q6 8 11 0 q6 8 11 0 q6 8 11 0 q5 7 11 0 L72 60 L28 60 Z" fill="#FF8FB1"/><rect x="48" y="26" width="4" height="16" rx="2" fill="#74C0FC"/><path d="M50 18 q4 4 0 8 q-4 -4 0 -8 Z" fill="#FF922B"/><circle cx="36" cy="70" r="2" fill="#FFD43B"/><circle cx="50" cy="72" r="2" fill="#74C0FC"/><circle cx="64" cy="70" r="2" fill="#51CF66"/><path d="M34 39.5 L34.81 43.19 L38.5 44 L34.81 44.81 L34 48.5 L33.19 44.81 L29.5 44 L33.19 43.19 Z" fill="#FFFFFF" opacity="0.9"/><path d="M68 47 L68.54 49.46 L71 50 L68.54 50.54 L68 53 L67.46 50.54 L65 50 L67.46 49.46 Z" fill="#FFFFFF" opacity="0.8"/></svg>