<svg xmlns="http://www.w3.org/2000/svg" viewBox="0 0 100 100" width="100" height="100"><defs><radialGradient id="halo" cx="50%" cy="52%" r="52%"><stop offset="0" stop-color="#E6B877" stop-opacity="0.9"/><stop offset="0.55" stop-color="#E6B877" stop-opacity="0.4"/><stop offset="1" stop-color="#E6B877" stop-opacity="0"/></radialGradient><linearGradient id="c" x1="0" y1="0" x2="0" y2="1"><stop offset="0" stop-color="#F0C896" stop-opacity="1"/><stop offset="1" stop-color="#C68A4A" stop-opacity="1"/></linearGradient></defs><circle cx="50" cy="52" r="52" fill="url(#halo)"/><ellipse cx="50" cy="92" rx="22" ry="4.5" fill="#000000" opacity="0.11"/><path d="M22 70 C22 56 30 56 34 60 C36 48 44 48 46 60 C48 50 56 50 58 60 C62 54 72 52 74 64 L72 72 L66 72 L66 66 L30 66 L30 72 Z" fill="url(#c)"/><path d="M70 60 C78 54 78 38 72 34 C74 42 70 50 66 54 Z" fill="url(#c)"/><circle cx="74" cy="34" r="2.4" fill="#3B2B22"/><rect x="26" y="70" width="5" height="12" fill="#A6713A"/><rect x="62" y="70" width="5" height="12" fill="#A6713A"/><path d="M40 42 L40.72 45.28 L44 46 L40.72 46.72 L40 50 L39.28 46.72 L36 46 L39.28 45.28 Z" fill="#FFFFFF" opacity="0.8"/></svg>