<svg xmlns="http://www.w3.org/2000/svg" viewBox="0 0 100 100" width="100" height="100"><defs><radialGradient id="halo" cx="50%" cy="52%" r="52%"><stop offset="0" stop-color="#FF8787" stop-opacity="0.9"/><stop offset="0.55" stop-color="#FF8787" stop-opacity="0.4"/><stop offset="1" stop-color="#FF8787" stop-opacity="0"/></radialGradient><linearGradient id="b" x1="0" y1="0" x2="0" y2="1"><stop offset="0" stop-color="#FF8787" stop-opacity="1"/><stop offset="1" stop-color="#E03131" stop-opacity="1"/></linearGradient><linearGradient id="g" x1="0" y1="0" x2="0" y2="1"><stop offset="0" stop-color="#D0EBFF" stop-opacity="1"/><stop offset="1" stop-color="#74C0FC" stop-opacity="1"/></linearGradient></defs><circle cx="50" cy="52" r="52" fill="url(#halo)"/><ellipse cx="50" cy="92" rx="22" ry="4.5" fill="#000000" opacity="0.11"/><path d="M18 64 L22 50 Q26 40 38 40 L62 40 Q74 40 78 50 L82 64 Q82 70 76 70 L24 70 Q18 70 18 64 Z" fill="url(#b)"/><path d="M34 41 L40 30 Q42 27 48 27 L58 27 Q64 27 66 32 L70 41 Z" fill="url(#g)"/><circle cx="32" cy="70" r="9" fill="#343A40"/><circle cx="32" cy="70" r="4" fill="#CED4DA"/><circle cx="68" cy="70" r="9" fill="#343A40"/><circle cx="68" cy="70" r="4" fill="#CED4DA"/><circle cx="78" cy="54" r="3" fill="#FFE066"/><path d="M24 52 Q40 46 60 48" stroke="#FFFFFF" stroke-width="2" opacity="0.35" fill="none"/><path d="M30 39.5 L30.81 43.19 L34.5 44 L30.81 44.81 L30 48.5 L29.19 44.81 L25.5 44 L29.19 43.19 Z" fill="#FFFFFF" opacity="0.9"/><path d="M64 55 L64.54 57.46 L67 58 L64.54 58.54 L64 61 L63.46 58.54 L61 58 L63.46 57.46 Z" fill="#FFFFFF" opacity="0.7"/></svg>