<svg xmlns="http://www.w3.org/2000/svg" viewBox="0 0 100 100" width="100" height="100"><defs><radialGradient id="halo" cx="50%" cy="52%" r="52%"><stop offset="0" stop-color="#FFA94D" stop-opacity="0.9"/><stop offset="0.55" stop-color="#FFA94D" stop-opacity="0.4"/><stop offset="1" stop-color="#FFA94D" stop-opacity="0"/></radialGradient><linearGradient id="b" x1="0" y1="0" x2="0" y2="1"><stop offset="0" stop-color="#FFC078" stop-opacity="1"/><stop offset="100" stop-color="#E8590C" stop-opacity="1"/></linearGradient></defs><circle cx="50" cy="52" r="52" fill="url(#halo)"/><ellipse cx="50" cy="92" rx="22" ry="4.5" fill="#000000" opacity="0.11"/><path d="M50 24 C44 30 42 34 42 40 L58 40 C58 34 56 30 50 24 Z" fill="#40C057"/><ellipse cx="40" cy="30" rx="5" ry="9" fill="#2F9E44" transform="rotate(-20 40 30)"/><ellipse cx="60" cy="30" rx="5" ry="9" fill="#2F9E44" transform="rotate(20 60 30)"/><path d="M40 42 L60 42 L50 86 Z" fill="url(#b)"/><path d="M45 52 L55 52 M46 62 L54 62 M48 72 L52 72" stroke="#B34700" stroke-width="1.6" opacity="0.6"/><path d="M56 46 L56.72 49.28 L60 50 L56.72 50.72 L56 54 L55.28 50.72 L52 50 L55.28 49.28 Z" fill="#FFFFFF" opacity="0.85"/><path d="M44 63.4 L44.468 65.532 L46.6 66 L44.468 66.468 L44 68.6 L43.532 66.468 L41.4 66 L43.532 65.532 Z" fill="#FFFFFF" opacity="0.75"/></svg>