<svg xmlns="http://www.w3.org/2000/svg" viewBox="0 0 100 100" width="100" height="100"><defs><radialGradient id="halo" cx="50%" cy="52%" r="52%"><stop offset="0" stop-color="#FFB066" stop-opacity="0.9"/><stop offset="0.55" stop-color="#FFB066" stop-opacity="0.4"/><stop offset="1" stop-color="#FFB066" stop-opacity="0"/></radialGradient><radialGradient id="b" cx="42%" cy="34%" r="80%"><stop offset="0" stop-color="#FFD8A8" stop-opacity="1"/><stop offset="60" stop-color="#FFA94D" stop-opacity="1"/><stop offset="100" stop-color="#E8590C" stop-opacity="1"/></radialGradient></defs><circle cx="50" cy="52" r="52" fill="url(#halo)"/><ellipse cx="50" cy="92" rx="22" ry="4.5" fill="#000000" opacity="0.11"/><path d="M30 34 L36 54 L24 52 Z" fill="url(#b)"/><path d="M70 34 L64 54 L76 52 Z" fill="url(#b)"/><path d="M33 38 L37 50 L29 49 Z" fill="#FF8FB1"/><path d="M67 38 L63 50 L71 49 Z" fill="#FF8FB1"/><circle cx="50" cy="58" r="25" fill="url(#b)"/><ellipse cx="41" cy="54" rx="3" ry="4.5" fill="#3B2B22"/><ellipse cx="59" cy="54" rx="3" ry="4.5" fill="#3B2B22"/><path d="M47 64 Q50 67 53 64" fill="none" stroke="#3B2B22" stroke-width="2" stroke-linecap="round"/><path d="M50 61 L50 64" stroke="#3B2B22" stroke-width="2" stroke-linecap="round"/><g stroke="#3B2B22" stroke-width="1.4" stroke-linecap="round"><path d="M30 60 L20 58 M30 64 L20 65 M70 60 L80 58 M70 64 L80 65"/></g><circle cx="38" cy="64" r="3.5" fill="#FF8FB1" opacity="0.6"/><circle cx="62" cy="64" r="3.5" fill="#FF8FB1" opacity="0.6"/><path d="M70 39.5 L70.81 43.19 L74.5 44 L70.81 44.81 L70 48.5 L69.19 44.81 L65.5 44 L69.19 43.19 Z" fill="#FFFFFF" opacity="0.9"/><path d="M32 69 L32.54 71.46 L35 72 L32.54 72.54 L32 75 L31.46 72.54 L29 72 L31.46 71.46 Z" fill="#FFFFFF" opacity="0.8"/></svg>