<svg xmlns="http://www.w3.org/2000/svg" viewBox="0 0 100 100" width="100" height="100"><defs><radialGradient id="halo" cx="50%" cy="52%" r="52%"><stop offset="0" stop-color="#FFE066" stop-opacity="0.9"/><stop offset="0.55" stop-color="#FFE066" stop-opacity="0.4"/><stop offset="1" stop-color="#FFE066" stop-opacity="0"/></radialGradient><linearGradient id="b" x1="0" y1="0" x2="0" y2="1"><stop offset="0" stop-color="#FFE98A" stop-opacity="1"/><stop offset="100" stop-color="#F0A500" stop-opacity="1"/></linearGradient></defs><circle cx="50" cy="52" r="52" fill="url(#halo)"/><ellipse cx="50" cy="92" rx="22" ry="4.5" fill="#000000" opacity="0.11"/><path d="M24 66 L72 46 Q77 44 77 50 L77 64 Q77 68 73 68 L28 68 Q24 68 24 66 Z" fill="url(#b)"/><path d="M24 66 L72 46" stroke="#FFF3BF" stroke-width="3" opacity="0.7"/><circle cx="46" cy="60" r="4" fill="#E8950C"/><circle cx="62" cy="58" r="3" fill="#E8950C"/><circle cx="55" cy="63" r="2.4" fill="#E8950C"/><path d="M68 48 L68.72 51.28 L72 52 L68.72 52.72 L68 56 L67.28 52.72 L64 52 L67.28 51.28 Z" fill="#FFFFFF" opacity="0.85"/><path d="M34 61.4 L34.468 63.532 L36.6 64 L34.468 64.468 L34 66.6 L33.532 64.468 L31.4 64 L33.532 63.532 Z" fill="#FFFFFF" opacity="0.75"/></svg>