<svg xmlns="http://www.w3.org/2000/svg" viewBox="0 0 100 100" width="100" height="100"><defs><radialGradient id="halo" cx="50%" cy="52%" r="52%"><stop offset="0" stop-color="#74C0FC" stop-opacity="0.9"/><stop offset="0.55" stop-color="#74C0FC" stop-opacity="0.4"/><stop offset="1" stop-color="#74C0FC" stop-opacity="0"/></radialGradient><linearGradient id="b" x1="0" y1="0" x2="0" y2="1"><stop offset="0" stop-color="#FFFFFF" stop-opacity="1"/><stop offset="1" stop-color="#C5D9EC" stop-opacity="1"/></linearGradient></defs><circle cx="50" cy="52" r="52" fill="url(#halo)"/><ellipse cx="50" cy="92" rx="22" ry="4.5" fill="#000000" opacity="0.11"/><g fill="url(#b)"><circle cx="36" cy="56" r="16"/><circle cx="54" cy="48" r="20"/><circle cx="68" cy="58" r="14"/><rect x="32" y="56" width="40" height="16" rx="8"/></g><ellipse cx="48" cy="42" rx="10" ry="5" fill="#FFFFFF" opacity="0.6"/><path d="M70 37 L70.9 41.1 L75 42 L70.9 42.9 L70 47 L69.1 42.9 L65 42 L69.1 41.1 Z" fill="#FFFFFF" opacity="0.9"/><path d="M34 65 L34.54 67.46 L37 68 L34.54 68.54 L34 71 L33.46 68.54 L31 68 L33.46 67.46 Z" fill="#FFFFFF" opacity="0.8"/></svg>