<svg xmlns="http://www.w3.org/2000/svg" viewBox="0 0 100 100" width="100" height="100"><defs><radialGradient id="halo" cx="50%" cy="52%" r="52%"><stop offset="0" stop-color="#74C0FC" stop-opacity="0.9"/><stop offset="0.55" stop-color="#74C0FC" stop-opacity="0.4"/><stop offset="1" stop-color="#74C0FC" stop-opacity="0"/></radialGradient><radialGradient id="h" cx="38%" cy="38%" r="70%"><stop offset="0" stop-color="#FFFFFF" stop-opacity="1"/><stop offset="45" stop-color="#A5D8FF" stop-opacity="1"/><stop offset="100" stop-color="#4DABF7" stop-opacity="1"/></radialGradient><linearGradient id="t" x1="0" y1="0" x2="1" y2="1"><stop offset="0" stop-color="#A5D8FF" stop-opacity="0.95"/><stop offset="60" stop-color="#4DABF7" stop-opacity="0.5"/><stop offset="100" stop-color="#4DABF7" stop-opacity="0"/></linearGradient></defs><circle cx="50" cy="52" r="52" fill="url(#halo)"/><ellipse cx="50" cy="92" rx="22" ry="4.5" fill="#000000" opacity="0.11"/><path d="M40 38 L90 80 L72 86 L34 54 Z" fill="url(#t)"/><path d="M44 42 L82 74 L74 80 Z" fill="#FFFFFF" opacity="0.35"/><circle cx="36" cy="38" r="17" fill="url(#h)"/><path d="M58 23 L58.9 27.1 L63 28 L58.9 28.9 L58 33 L57.1 28.9 L53 28 L57.1 27.1 Z" fill="#FFFFFF" opacity="0.95"/><path d="M76 58.5 L76.63 61.37 L79.5 62 L76.63 62.63 L76 65.5 L75.37 62.63 L72.5 62 L75.37 61.37 Z" fill="#FFFFFF" opacity="0.85"/></svg>