<svg xmlns="http://www.w3.org/2000/svg" viewBox="0 0 100 100" width="100" height="100"><defs><radialGradient id="halo" cx="50%" cy="52%" r="52%"><stop offset="0" stop-color="#D9A066" stop-opacity="0.9"/><stop offset="0.55" stop-color="#D9A066" stop-opacity="0.4"/><stop offset="1" stop-color="#D9A066" stop-opacity="0"/></radialGradient><radialGradient id="b" cx="40%" cy="35%" r="80%"><stop offset="0" stop-color="#F0C27B" stop-opacity="1"/><stop offset="60" stop-color="#D9A066" stop-opacity="1"/><stop offset="100" stop-color="#A6713A" stop-opacity="1"/></radialGradient></defs><circle cx="50" cy="52" r="52" fill="url(#halo)"/><ellipse cx="50" cy="92" rx="22" ry="4.5" fill="#000000" opacity="0.11"/><circle cx="50" cy="52" r="30" fill="url(#b)"/><circle cx="40" cy="42" r="4" fill="#5A3A22"/><circle cx="62" cy="44" r="4.5" fill="#5A3A22"/><circle cx="54" cy="60" r="4" fill="#5A3A22"/><circle cx="36" cy="60" r="3.5" fill="#5A3A22"/><circle cx="66" cy="62" r="3" fill="#5A3A22"/><circle cx="50" cy="36" r="3" fill="#5A3A22"/><ellipse cx="40" cy="40" rx="8" ry="6" fill="#FFFFFF" opacity="0.18"/><path d="M70 33.5 L70.81 37.19 L74.5 38 L70.81 38.81 L70 42.5 L69.19 38.81 L65.5 38 L69.19 37.19 Z" fill="#FFFFFF" opacity="0.9"/><path d="M34 65 L34.54 67.46 L37 68 L34.54 68.54 L34 71 L33.46 68.54 L31 68 L33.46 67.46 Z" fill="#FFFFFF" opacity="0.8"/></svg>