<svg xmlns="http://www.w3.org/2000/svg" viewBox="0 0 100 100" width="100" height="100"><defs><radialGradient id="halo" cx="50%" cy="52%" r="52%"><stop offset="0" stop-color="#FFC9DE" stop-opacity="0.9"/><stop offset="0.55" stop-color="#FFC9DE" stop-opacity="0.4"/><stop offset="1" stop-color="#FFC9DE" stop-opacity="0"/></radialGradient><radialGradient id="sh" cx="50%" cy="80%" r="80%"><stop offset="0" stop-color="#FFF0F6" stop-opacity="1"/><stop offset="60" stop-color="#FFC9DE" stop-opacity="1"/><stop offset="100" stop-color="#F06595" stop-opacity="1"/></radialGradient></defs><circle cx="50" cy="52" r="52" fill="url(#halo)"/><ellipse cx="50" cy="92" rx="22" ry="4.5" fill="#000000" opacity="0.11"/><path d="M50 26 C24 30 14 64 22 80 Q50 72 78 80 C86 64 76 30 50 26 Z" fill="url(#sh)"/><g stroke="#E08DAA" stroke-width="2" opacity="0.55" fill="none" stroke-linecap="round"><path d="M50 34 L50 74"/><path d="M40 36 L33 72"/><path d="M60 36 L67 72"/><path d="M32 42 L23 74"/><path d="M68 42 L77 74"/></g><circle cx="50" cy="30" r="5" fill="#FFE0EC"/><path d="M70 36 L70.72 39.28 L74 40 L70.72 40.72 L70 44 L69.28 40.72 L66 40 L69.28 39.28 Z" fill="#FFFFFF" opacity="0.85"/></svg>