<svg xmlns="http://www.w3.org/2000/svg" viewBox="0 0 100 100" width="100" height="100"><defs><radialGradient id="halo" cx="50%" cy="52%" r="52%"><stop offset="0" stop-color="#51CF66" stop-opacity="0.9"/><stop offset="0.55" stop-color="#51CF66" stop-opacity="0.4"/><stop offset="1" stop-color="#51CF66" stop-opacity="0"/></radialGradient><linearGradient id="l1" x1="0" y1="0" x2="1" y2="1"><stop offset="0" stop-color="#B2F2BB" stop-opacity="1"/><stop offset="1" stop-color="#2F9E44" stop-opacity="1"/></linearGradient><linearGradient id="l2" x1="0" y1="0" x2="1" y2="1"><stop offset="0" stop-color="#8CE99A" stop-opacity="1"/><stop offset="1" stop-color="#2B8A3E" stop-opacity="1"/></linearGradient></defs><circle cx="50" cy="52" r="52" fill="url(#halo)"/><ellipse cx="50" cy="92" rx="22" ry="4.5" fill="#000000" opacity="0.11"/><path d="M50 40 C72 44 76 64 60 76 C40 72 38 52 50 40 Z" fill="url(#l2)" transform="rotate(20 55 58)"/><path d="M50 38 C28 42 24 62 40 74 C60 70 62 50 50 38 Z" fill="url(#l1)" transform="rotate(-18 45 56)"/><path d="M50 46 C58 54 58 66 52 74" stroke="#2B8A3E" stroke-width="2" fill="none" opacity="0.6"/><path d="M64 39.5 L64.81 43.19 L68.5 44 L64.81 44.81 L64 48.5 L63.19 44.81 L59.5 44 L63.19 43.19 Z" fill="#FFFFFF" opacity="0.9"/><path d="M36 65 L36.54 67.46 L39 68 L36.54 68.54 L36 71 L35.46 68.54 L33 68 L35.46 67.46 Z" fill="#FFFFFF" opacity="0.8"/></svg>