<svg xmlns="http://www.w3.org/2000/svg" viewBox="0 0 100 100" width="100" height="100"><defs><radialGradient id="halo" cx="50%" cy="52%" r="52%"><stop offset="0" stop-color="#A5D8FF" stop-opacity="0.9"/><stop offset="0.55" stop-color="#A5D8FF" stop-opacity="0.4"/><stop offset="1" stop-color="#A5D8FF" stop-opacity="0"/></radialGradient><linearGradient id="b" x1="0" y1="0" x2="0" y2="1"><stop offset="0" stop-color="#FFFFFF" stop-opacity="1"/><stop offset="1" stop-color="#C4DCF0" stop-opacity="1"/></linearGradient></defs><circle cx="50" cy="52" r="52" fill="url(#halo)"/><ellipse cx="50" cy="92" rx="22" ry="4.5" fill="#000000" opacity="0.11"/><path d="M14 76 Q20 50 38 54 Q46 38 60 48 Q78 46 84 66 Q88 78 80 80 L20 80 Q12 80 14 76 Z" fill="url(#b)"/><path d="M14 76 Q20 52 38 55" fill="none" stroke="#9CC3E6" stroke-width="2" opacity="0.6"/><g stroke="#4DABF7" stroke-width="2.4" stroke-linecap="round" opacity="0.9"><path d="M40 28 L40 46 M32 32 L48 42 M48 32 L32 42"/></g><circle cx="66" cy="32" r="2.6" fill="#4DABF7" opacity="0.8"/><path d="M72 49.5 L72.81 53.19 L76.5 54 L72.81 54.81 L72 58.5 L71.19 54.81 L67.5 54 L71.19 53.19 Z" fill="#FFFFFF" opacity="0.9"/><path d="M28 63 L28.54 65.46 L31 66 L28.54 66.54 L28 69 L27.46 66.54 L25 66 L27.46 65.46 Z" fill="#FFFFFF" opacity="0.8"/></svg>