<svg xmlns="http://www.w3.org/2000/svg" viewBox="0 0 100 100" width="100" height="100"><defs><radialGradient id="halo" cx="50%" cy="52%" r="52%"><stop offset="0" stop-color="#FFE066" stop-opacity="0.9"/><stop offset="0.55" stop-color="#FFE066" stop-opacity="0.4"/><stop offset="1" stop-color="#FFE066" stop-opacity="0"/></radialGradient><radialGradient id="st" cx="50%" cy="40%" r="70%"><stop offset="0" stop-color="#FFFDEB" stop-opacity="1"/><stop offset="45" stop-color="#FFE066" stop-opacity="1"/><stop offset="100" stop-color="#F08C00" stop-opacity="1"/></radialGradient></defs><circle cx="50" cy="52" r="52" fill="url(#halo)"/><ellipse cx="50" cy="92" rx="22" ry="4.5" fill="#000000" opacity="0.11"/><path d="M50 28 L57 44 L74 45 L61 56 L65 73 L50 63 L35 73 L39 56 L26 45 L43 44 Z" fill="url(#st)" stroke="#E8950C" stroke-width="2" stroke-linejoin="round"/><path d="M50 28 L57 44 L50 56 L43 44 Z" fill="#FFFFFF" opacity="0.35"/><path d="M76 29.5 L76.81 33.19 L80.5 34 L76.81 34.81 L76 38.5 L75.19 34.81 L71.5 34 L75.19 33.19 Z" fill="#FFFFFF" opacity="0.9"/><path d="M28 62.5 L28.63 65.37 L31.5 66 L28.63 66.63 L28 69.5 L27.37 66.63 L24.5 66 L27.37 65.37 Z" fill="#FFFFFF" opacity="0.85"/></svg>