<svg xmlns="http://www.w3.org/2000/svg" viewBox="0 0 100 100" width="100" height="100"><defs><radialGradient id="halo" cx="50%" cy="52%" r="52%"><stop offset="0" stop-color="#D9A066" stop-opacity="0.9"/><stop offset="0.55" stop-color="#D9A066" stop-opacity="0.4"/><stop offset="1" stop-color="#D9A066" stop-opacity="0"/></radialGradient><linearGradient id="b" x1="0" y1="0" x2="0" y2="1"><stop offset="0" stop-color="#E6B877" stop-opacity="1"/><stop offset="1" stop-color="#A6713A" stop-opacity="1"/></linearGradient><linearGradient id="t" x1="0" y1="0" x2="0" y2="1"><stop offset="0" stop-color="#F0C896" stop-opacity="1"/><stop offset="1" stop-color="#C68A4A" stop-opacity="1"/></linearGradient></defs><circle cx="50" cy="52" r="52" fill="url(#halo)"/><ellipse cx="50" cy="92" rx="22" ry="4.5" fill="#000000" opacity="0.11"/><rect x="22" y="44" width="56" height="38" rx="4" fill="url(#b)"/><rect x="20" y="38" width="60" height="12" rx="3" fill="url(#t)"/><rect x="44" y="38" width="12" height="44" fill="#B5824A" opacity="0.7"/><path d="M44 38 L50 30 L56 38 Z" fill="#C68A4A"/><rect x="26" y="48" width="5" height="30" fill="#FFFFFF" opacity="0.14"/><path d="M34 48 L34.72 51.28 L38 52 L34.72 52.72 L34 56 L33.28 52.72 L30 52 L33.28 51.28 Z" fill="#FFFFFF" opacity="0.85"/><path d="M66 61 L66.54 63.46 L69 64 L66.54 64.54 L66 67 L65.46 64.54 L63 64 L65.46 63.46 Z" fill="#FFFFFF" opacity="0.7"/></svg>