<svg xmlns="http://www.w3.org/2000/svg" viewBox="0 0 100 100" width="100" height="100"><defs><radialGradient id="halo" cx="50%" cy="52%" r="52%"><stop offset="0" stop-color="#C68A4A" stop-opacity="0.9"/><stop offset="0.55" stop-color="#C68A4A" stop-opacity="0.4"/><stop offset="1" stop-color="#C68A4A" stop-opacity="0"/></radialGradient><linearGradient id="wood" x1="0" y1="0" x2="0" y2="1"><stop offset="0" stop-color="#D9A066" stop-opacity="1"/><stop offset="1" stop-color="#8C5A2B" stop-opacity="1"/></linearGradient><linearGradient id="lid" x1="0" y1="0" x2="0" y2="1"><stop offset="0" stop-color="#C68A4A" stop-opacity="1"/><stop offset="1" stop-color="#9A6633" stop-opacity="1"/></linearGradient></defs><circle cx="50" cy="52" r="52" fill="url(#halo)"/><ellipse cx="50" cy="92" rx="22" ry="4.5" fill="#000000" opacity="0.11"/><rect x="22" y="52" width="56" height="30" rx="3" fill="url(#wood)"/><path d="M20 52 Q50 32 80 52 L80 56 L20 56 Z" fill="url(#lid)"/><rect x="20" y="53" width="60" height="6" fill="#6E4423"/><rect x="24" y="56" width="4" height="26" fill="#E8A100" opacity="0.85"/><rect x="72" y="56" width="4" height="26" fill="#E8A100" opacity="0.85"/><rect x="44" y="48" width="12" height="14" rx="2" fill="#FFD43B"/><circle cx="50" cy="56" r="2.4" fill="#8C5A2B"/><path d="M68 42 L68.72 45.28 L72 46 L68.72 46.72 L68 50 L67.28 46.72 L64 46 L67.28 45.28 Z" fill="#FFFFFF" opacity="0.85"/></svg>