<svg xmlns="http://www.w3.org/2000/svg" viewBox="0 0 100 100" width="100" height="100"><defs><radialGradient id="halo" cx="50%" cy="52%" r="52%"><stop offset="0" stop-color="#CED4DA" stop-opacity="0.9"/><stop offset="0.55" stop-color="#CED4DA" stop-opacity="0.4"/><stop offset="1" stop-color="#CED4DA" stop-opacity="0"/></radialGradient><linearGradient id="rk" x1="0" y1="0" x2="0" y2="1"><stop offset="0" stop-color="#CED4DA" stop-opacity="1"/><stop offset="1" stop-color="#868E96" stop-opacity="1"/></linearGradient></defs><circle cx="50" cy="52" r="52" fill="url(#halo)"/><ellipse cx="50" cy="92" rx="22" ry="4.5" fill="#000000" opacity="0.11"/><path d="M22 78 Q19 56 36 50 Q44 40 58 46 Q80 44 80 66 Q82 78 72 78 Z" fill="url(#rk)"/><path d="M36 54 Q47 49 57 54" stroke="#FFFFFF" stroke-width="2.5" opacity="0.3" fill="none" stroke-linecap="round"/><path d="M50 56 L46 72 M59 60 L63 74" stroke="#5C636A" stroke-width="1.6" opacity="0.5" fill="none"/><path d="M68 42.5 L68.63 45.37 L71.5 46 L68.63 46.63 L68 49.5 L67.37 46.63 L64.5 46 L67.37 45.37 Z" fill="#FFFFFF" opacity="0.8"/></svg>