<svg xmlns="http://www.w3.org/2000/svg" viewBox="0 0 100 100" width="100" height="100"><defs><radialGradient id="halo" cx="50%" cy="52%" r="52%"><stop offset="0" stop-color="#FF6B6B" stop-opacity="0.9"/><stop offset="0.55" stop-color="#FF6B6B" stop-opacity="0.4"/><stop offset="1" stop-color="#FF6B6B" stop-opacity="0"/></radialGradient><radialGradient id="c" cx="42%" cy="34%" r="80%"><stop offset="0" stop-color="#FF8787" stop-opacity="1"/><stop offset="45" stop-color="#FA5252" stop-opacity="1"/><stop offset="100" stop-color="#C92A2A" stop-opacity="1"/></radialGradient></defs><circle cx="50" cy="52" r="52" fill="url(#halo)"/><ellipse cx="50" cy="92" rx="22" ry="4.5" fill="#000000" opacity="0.11"/><ellipse cx="50" cy="56" rx="24" ry="16" fill="url(#c)"/><g stroke="#C92A2A" stroke-width="3" stroke-linecap="round"><path d="M30 60 L18 70 M34 64 L24 76 M70 60 L82 70 M66 64 L76 76"/></g><path d="M30 48 C20 42 16 50 22 54 C26 50 30 50 30 50 Z" fill="url(#c)"/><circle cx="18" cy="48" r="5" fill="url(#c)"/><path d="M70 48 C80 42 84 50 78 54 C74 50 70 50 70 50 Z" fill="url(#c)"/><circle cx="82" cy="48" r="5" fill="url(#c)"/><circle cx="43" cy="50" r="3" fill="#FFFFFF"/><circle cx="57" cy="50" r="3" fill="#FFFFFF"/><circle cx="43" cy="50" r="1.6" fill="#1A1A2E"/><circle cx="57" cy="50" r="1.6" fill="#1A1A2E"/><path d="M72 40 L72.72 43.28 L76 44 L72.72 44.72 L72 48 L71.28 44.72 L68 44 L71.28 43.28 Z" fill="#FFFFFF" opacity="0.8"/></svg>