<svg xmlns="http://www.w3.org/2000/svg" viewBox="0 0 100 100" width="100" height="100"><defs><radialGradient id="halo" cx="50%" cy="52%" r="52%"><stop offset="0" stop-color="#FFD43B" stop-opacity="0.9"/><stop offset="0.55" stop-color="#FFD43B" stop-opacity="0.4"/><stop offset="1" stop-color="#FFD43B" stop-opacity="0"/></radialGradient><linearGradient id="b" x1="0" y1="0" x2="0" y2="1"><stop offset="0" stop-color="#FFF3BF" stop-opacity="1"/><stop offset="1" stop-color="#E8950C" stop-opacity="1"/></linearGradient></defs><circle cx="50" cy="52" r="52" fill="url(#halo)"/><ellipse cx="50" cy="92" rx="22" ry="4.5" fill="#000000" opacity="0.11"/><path d="M22 70 L18 36 L34 50 L50 26 L66 50 L82 36 L78 70 Z" fill="url(#b)"/><rect x="22" y="70" width="56" height="10" rx="3" fill="#E8950C"/><circle cx="50" cy="28" r="4" fill="#FF6B6B"/><circle cx="18" cy="36" r="3.5" fill="#4DABF7"/><circle cx="82" cy="36" r="3.5" fill="#4DABF7"/><circle cx="36" cy="74" r="2.6" fill="#51CF66"/><circle cx="50" cy="74" r="2.6" fill="#FF6B6B"/><circle cx="64" cy="74" r="2.6" fill="#4DABF7"/><path d="M34 41.5 L34.81 45.19 L38.5 46 L34.81 46.81 L34 50.5 L33.19 46.81 L29.5 46 L33.19 45.19 Z" fill="#FFFFFF" opacity="0.9"/><path d="M66 42.5 L66.63 45.37 L69.5 46 L66.63 46.63 L66 49.5 L65.37 46.63 L62.5 46 L65.37 45.37 Z" fill="#FFFFFF" opacity="0.85"/></svg>