<svg xmlns="http://www.w3.org/2000/svg" viewBox="0 0 100 100" width="100" height="100"><defs><radialGradient id="halo" cx="50%" cy="52%" r="52%"><stop offset="0" stop-color="#FFE066" stop-opacity="0.9"/><stop offset="0.55" stop-color="#FFE066" stop-opacity="0.4"/><stop offset="1" stop-color="#FFE066" stop-opacity="0"/></radialGradient><radialGradient id="b" cx="40%" cy="32%" r="80%"><stop offset="0" stop-color="#FFF3BF" stop-opacity="1"/><stop offset="45" stop-color="#FFD43B" stop-opacity="1"/><stop offset="100" stop-color="#E8A100" stop-opacity="1"/></radialGradient><linearGradient id="beak" x1="0" y1="0" x2="1" y2="0"><stop offset="0" stop-color="#FFA94D" stop-opacity="1"/><stop offset="1" stop-color="#E8590C" stop-opacity="1"/></linearGradient></defs><circle cx="50" cy="52" r="52" fill="url(#halo)"/><ellipse cx="50" cy="92" rx="22" ry="4.5" fill="#000000" opacity="0.11"/><ellipse cx="45" cy="62" rx="26" ry="19" fill="url(#b)"/><circle cx="65" cy="40" r="15" fill="url(#b)"/><path d="M77 36 L93 41 L77 47 Z" fill="url(#beak)"/><ellipse cx="35" cy="60" rx="12" ry="9" fill="#000000" opacity="0.06"/><circle cx="68" cy="37" r="2.6" fill="#3B2B12"/><circle cx="69" cy="36" r="0.9" fill="#FFF"/><path d="M33 40 L34.08 44.92 L39 46 L34.08 47.08 L33 52 L31.92 47.08 L27 46 L31.92 44.92 Z" fill="#FFFFFF" opacity="0.95"/><path d="M58 68 L58.72 71.28 L62 72 L58.72 72.72 L58 76 L57.28 72.72 L54 72 L57.28 71.28 Z" fill="#FFFFFF" opacity="0.85"/></svg>