<svg xmlns="http://www.w3.org/2000/svg" viewBox="0 0 100 100" width="100" height="100"><defs><radialGradient id="halo" cx="50%" cy="52%" r="52%"><stop offset="0" stop-color="#FFF3BF" stop-opacity="0.9"/><stop offset="0.55" stop-color="#FFF3BF" stop-opacity="0.4"/><stop offset="1" stop-color="#FFF3BF" stop-opacity="0"/></radialGradient><radialGradient id="yolk" cx="44%" cy="42%" r="55%"><stop offset="0" stop-color="#FFE066" stop-opacity="1"/><stop offset="100" stop-color="#F59F00" stop-opacity="1"/></radialGradient></defs><circle cx="50" cy="52" r="52" fill="url(#halo)"/><ellipse cx="50" cy="92" rx="22" ry="4.5" fill="#000000" opacity="0.11"/><path d="M30 54 Q24 36 44 34 Q52 24 62 34 Q82 34 76 52 Q84 68 64 70 Q54 82 42 70 Q22 66 30 54 Z" fill="#FFFFFF"/><circle cx="52" cy="50" r="13" fill="url(#yolk)"/><ellipse cx="48" cy="46" rx="4" ry="3" fill="#FFF" opacity="0.6"/><path d="M70 36 L70.72 39.28 L74 40 L70.72 40.72 L70 44 L69.28 40.72 L66 40 L69.28 39.28 Z" fill="#FFFFFF" opacity="0.85"/><path d="M34 57 L34.54 59.46 L37 60 L34.54 60.54 L34 63 L33.46 60.54 L31 60 L33.46 59.46 Z" fill="#FFFFFF" opacity="0.75"/></svg>