<svg xmlns="http://www.w3.org/2000/svg" viewBox="0 0 100 100" width="100" height="100"><defs><radialGradient id="halo" cx="50%" cy="52%" r="52%"><stop offset="0" stop-color="#FF922B" stop-opacity="0.9"/><stop offset="0.55" stop-color="#FF922B" stop-opacity="0.4"/><stop offset="1" stop-color="#FF922B" stop-opacity="0"/></radialGradient><linearGradient id="o" x1="0" y1="0" x2="0" y2="1"><stop offset="0" stop-color="#FFD43B" stop-opacity="1"/><stop offset="1" stop-color="#E8590C" stop-opacity="1"/></linearGradient><linearGradient id="y" x1="0" y1="0" x2="0" y2="1"><stop offset="0" stop-color="#FFF3BF" stop-opacity="1"/><stop offset="1" stop-color="#FFA94D" stop-opacity="1"/></linearGradient></defs><circle cx="50" cy="52" r="52" fill="url(#halo)"/><ellipse cx="50" cy="92" rx="22" ry="4.5" fill="#000000" opacity="0.11"/><path d="M50 12 C66 30 74 42 74 58 A24 24 0 0 1 26 58 C26 46 32 40 38 34 C40 44 46 44 46 36 C46 26 48 18 50 12 Z" fill="url(#o)"/><path d="M50 40 C58 50 62 56 62 64 A12 12 0 0 1 38 64 C38 56 42 52 46 48 C48 54 52 52 50 46 Z" fill="url(#y)"/><path d="M68 27.5 L68.81 31.19 L72.5 32 L68.81 32.81 L68 36.5 L67.19 32.81 L63.5 32 L67.19 31.19 Z" fill="#FFFFFF" opacity="0.9"/><path d="M32 43 L32.54 45.46 L35 46 L32.54 46.54 L32 49 L31.46 46.54 L29 46 L31.46 45.46 Z" fill="#FFFFFF" opacity="0.8"/></svg>