<svg xmlns="http://www.w3.org/2000/svg" viewBox="0 0 100 100" width="100" height="100"><defs><radialGradient id="halo" cx="50%" cy="52%" r="52%"><stop offset="0" stop-color="#D8F36B" stop-opacity="0.9"/><stop offset="0.55" stop-color="#D8F36B" stop-opacity="0.4"/><stop offset="1" stop-color="#D8F36B" stop-opacity="0"/></radialGradient><radialGradient id="g" cx="50%" cy="50%" r="70%"><stop offset="0" stop-color="#FBFFD6" stop-opacity="1"/><stop offset="50" stop-color="#D8F36B" stop-opacity="1"/><stop offset="100" stop-color="#82C91E" stop-opacity="1"/></radialGradient></defs><circle cx="50" cy="52" r="52" fill="url(#halo)"/><ellipse cx="50" cy="92" rx="22" ry="4.5" fill="#000000" opacity="0.11"/><circle cx="50" cy="52" r="20" fill="url(#g)"/><circle cx="50" cy="62" r="9" fill="#FFFDE7"/><path d="M40 36 L30 26 M60 36 L70 26" stroke="#5C7C12" stroke-width="2.4" stroke-linecap="round"/><circle cx="44" cy="46" r="2.6" fill="#3B4B12"/><circle cx="56" cy="46" r="2.6" fill="#3B4B12"/><path d="M72 35.5 L72.81 39.19 L76.5 40 L72.81 40.81 L72 44.5 L71.19 40.81 L67.5 40 L71.19 39.19 Z" fill="#FFFFFF" opacity="0.9"/><path d="M30 59 L30.54 61.46 L33 62 L30.54 62.54 L30 65 L29.46 62.54 L27 62 L29.46 61.46 Z" fill="#FFFFFF" opacity="0.8"/></svg>