<svg xmlns="http://www.w3.org/2000/svg" viewBox="0 0 100 100" width="100" height="100"><defs><radialGradient id="halo" cx="50%" cy="52%" r="52%"><stop offset="0" stop-color="#4DABF7" stop-opacity="0.9"/><stop offset="0.55" stop-color="#4DABF7" stop-opacity="0.4"/><stop offset="1" stop-color="#4DABF7" stop-opacity="0"/></radialGradient><linearGradient id="f" x1="0" y1="0" x2="0" y2="1"><stop offset="0" stop-color="#A5D8FF" stop-opacity="1"/><stop offset="1" stop-color="#1971C2" stop-opacity="1"/></linearGradient></defs><circle cx="50" cy="52" r="52" fill="url(#halo)"/><ellipse cx="50" cy="92" rx="22" ry="4.5" fill="#000000" opacity="0.11"/><ellipse cx="46" cy="52" rx="26" ry="17" fill="url(#f)"/><path d="M70 52 L88 38 L86 66 Z" fill="url(#f)"/><path d="M44 35 L52 44 L40 46 Z" fill="#74C0FC"/><circle cx="34" cy="48" r="3.5" fill="#FFFFFF"/><circle cx="34" cy="48" r="1.8" fill="#1A1A2E"/><path d="M50 52 q8 5 16 0" stroke="#1971C2" stroke-width="2" fill="none" opacity="0.5"/><path d="M64 36 L64.72 39.28 L68 40 L64.72 40.72 L64 44 L63.28 40.72 L60 40 L63.28 39.28 Z" fill="#FFFFFF" opacity="0.8"/></svg>