<svg xmlns="http://www.w3.org/2000/svg" viewBox="0 0 100 100" width="100" height="100"><defs><radialGradient id="halo" cx="50%" cy="52%" r="52%"><stop offset="0" stop-color="#F783AC" stop-opacity="0.9"/><stop offset="0.55" stop-color="#F783AC" stop-opacity="0.4"/><stop offset="1" stop-color="#F783AC" stop-opacity="0"/></radialGradient><radialGradient id="pet" cx="50%" cy="50%" r="70%"><stop offset="0" stop-color="#FFFFFF" stop-opacity="1"/><stop offset="60" stop-color="#FFC9DE" stop-opacity="1"/><stop offset="100" stop-color="#F06595" stop-opacity="1"/></radialGradient><radialGradient id="c" cx="40%" cy="35%" r="80%"><stop offset="0" stop-color="#FFE066" stop-opacity="1"/><stop offset="100" stop-color="#F08C00" stop-opacity="1"/></radialGradient></defs><circle cx="50" cy="52" r="52" fill="url(#halo)"/><ellipse cx="50" cy="92" rx="22" ry="4.5" fill="#000000" opacity="0.11"/><ellipse cx="50" cy="29" rx="7.5" ry="13" fill="url(#pet)" transform="rotate(0 50 50)"/><ellipse cx="50" cy="29" rx="7.5" ry="13" fill="url(#pet)" transform="rotate(45 50 50)"/><ellipse cx="50" cy="29" rx="7.5" ry="13" fill="url(#pet)" transform="rotate(90 50 50)"/><ellipse cx="50" cy="29" rx="7.5" ry="13" fill="url(#pet)" transform="rotate(135 50 50)"/><ellipse cx="50" cy="29" rx="7.5" ry="13" fill="url(#pet)" transform="rotate(180 50 50)"/><ellipse cx="50" cy="29" rx="7.5" ry="13" fill="url(#pet)" transform="rotate(225 50 50)"/><ellipse cx="50" cy="29" rx="7.5" ry="13" fill="url(#pet)" transform="rotate(270 50 50)"/><ellipse cx="50" cy="29" rx="7.5" ry="13" fill="url(#pet)" transform="rotate(315 50 50)"/><circle cx="50" cy="50" r="12" fill="url(#c)"/><ellipse cx="46" cy="46" rx="3.5" ry="4.5" fill="#FFFFFF" opacity="0.5"/><path d="M50 25 L50.9 29.1 L55 30 L50.9 30.9 L50 35 L49.1 30.9 L45 30 L49.1 29.1 Z" fill="#FFFFFF" opacity="0.9"/><path d="M72 58.5 L72.63 61.37 L75.5 62 L72.63 62.63 L72 65.5 L71.37 62.63 L68.5 62 L71.37 61.37 Z" fill="#FFFFFF" opacity="0.8"/></svg>