<svg xmlns="http://www.w3.org/2000/svg" viewBox="0 0 100 100" width="100" height="100"><defs><radialGradient id="halo" cx="50%" cy="52%" r="52%"><stop offset="0" stop-color="#FF922B" stop-opacity="0.9"/><stop offset="0.55" stop-color="#FF922B" stop-opacity="0.4"/><stop offset="1" stop-color="#FF922B" stop-opacity="0"/></radialGradient><linearGradient id="f" x1="0" y1="0" x2="0" y2="1"><stop offset="0" stop-color="#FFB066" stop-opacity="1"/><stop offset="1" stop-color="#E8590C" stop-opacity="1"/></linearGradient></defs><circle cx="50" cy="52" r="52" fill="url(#halo)"/><ellipse cx="50" cy="92" rx="22" ry="4.5" fill="#000000" opacity="0.11"/><path d="M26 30 L36 52 L24 50 Z" fill="url(#f)"/><path d="M74 30 L64 52 L76 50 Z" fill="url(#f)"/><path d="M50 34 C32 34 28 52 34 66 Q50 80 66 66 C72 52 68 34 50 34 Z" fill="url(#f)"/><path d="M50 52 C42 52 40 64 50 72 C60 64 58 52 50 52 Z" fill="#FFF3E0"/><circle cx="42" cy="52" r="3" fill="#3B2B22"/><circle cx="58" cy="52" r="3" fill="#3B2B22"/><circle cx="50" cy="64" r="3" fill="#3B2B22"/><path d="M70 36 L70.72 39.28 L74 40 L70.72 40.72 L70 44 L69.28 40.72 L66 40 L69.28 39.28 Z" fill="#FFFFFF" opacity="0.85"/></svg>