<svg xmlns="http://www.w3.org/2000/svg" viewBox="0 0 100 100" width="100" height="100"><defs><radialGradient id="halo" cx="50%" cy="52%" r="52%"><stop offset="0" stop-color="#B197FC" stop-opacity="0.9"/><stop offset="0.55" stop-color="#B197FC" stop-opacity="0.4"/><stop offset="1" stop-color="#B197FC" stop-opacity="0"/></radialGradient><radialGradient id="g" cx="50%" cy="50%" r="75%"><stop offset="0" stop-color="#3B1B6E" stop-opacity="1"/><stop offset="100" stop-color="#1A0B3E" stop-opacity="1"/></radialGradient></defs><circle cx="50" cy="52" r="52" fill="url(#halo)"/><ellipse cx="50" cy="92" rx="22" ry="4.5" fill="#000000" opacity="0.11"/><circle cx="50" cy="50" r="30" fill="url(#g)"/><path d="M50 50 C58 34 80 40 74 56 C70 66 56 64 50 50 Z" fill="#DA77F2" opacity="0.85"/><path d="M50 50 C42 66 20 60 26 44 C30 34 44 36 50 50 Z" fill="#9775FA" opacity="0.85"/><circle cx="50" cy="50" r="7" fill="#FFFDE7"/><circle cx="36" cy="38" r="1.6" fill="#FFFFFF"/><circle cx="66" cy="62" r="1.6" fill="#FFFFFF"/><circle cx="62" cy="34" r="1.2" fill="#FFFFFF"/><path d="M74 32 L74.72 35.28 L78 36 L74.72 36.72 L74 40 L73.28 36.72 L70 36 L73.28 35.28 Z" fill="#FFFFFF" opacity="0.85"/><path d="M28 59 L28.54 61.46 L31 62 L28.54 62.54 L28 65 L27.46 62.54 L25 62 L27.46 61.46 Z" fill="#FFFFFF" opacity="0.8"/></svg>