<svg xmlns="http://www.w3.org/2000/svg" viewBox="0 0 100 100" width="100" height="100"><defs><radialGradient id="halo" cx="50%" cy="52%" r="52%"><stop offset="0" stop-color="#4DABF7" stop-opacity="0.9"/><stop offset="0.55" stop-color="#4DABF7" stop-opacity="0.4"/><stop offset="1" stop-color="#4DABF7" stop-opacity="0"/></radialGradient><linearGradient id="b" x1="0" y1="0" x2="0" y2="1"><stop offset="0" stop-color="#D0EBFF" stop-opacity="1"/><stop offset="1" stop-color="#1C7ED6" stop-opacity="1"/></linearGradient></defs><circle cx="50" cy="52" r="52" fill="url(#halo)"/><ellipse cx="50" cy="92" rx="22" ry="4.5" fill="#000000" opacity="0.11"/><path d="M30 36 L70 36 L84 50 L50 86 L16 50 Z" fill="url(#b)"/><path d="M30 36 L40 50 L16 50 Z" fill="#A5D8FF" opacity="0.8"/><path d="M70 36 L60 50 L84 50 Z" fill="#4DABF7" opacity="0.9"/><path d="M30 36 L40 50 L60 50 L70 36 Z" fill="#74C0FC"/><path d="M40 50 L60 50 L50 86 Z" fill="#1C7ED6"/><path d="M16 50 L40 50 L50 86 Z" fill="#1971C2" opacity="0.9"/><path d="M33 40 L44 40" stroke="#FFFFFF" stroke-width="2" opacity="0.6" stroke-linecap="round"/><path d="M64 39 L64.9 43.1 L69 44 L64.9 44.9 L64 49 L63.1 44.9 L59 44 L63.1 43.1 Z" fill="#FFFFFF" opacity="0.95"/><path d="M40 60.5 L40.63 63.37 L43.5 64 L40.63 64.63 L40 67.5 L39.37 64.63 L36.5 64 L39.37 63.37 Z" fill="#FFFFFF" opacity="0.85"/><path d="M72 53.5 L72.45 55.55 L74.5 56 L72.45 56.45 L72 58.5 L71.55 56.45 L69.5 56 L71.55 55.55 Z" fill="#FFFFFF" opacity="0.7"/></svg>