<svg xmlns="http://www.w3.org/2000/svg" viewBox="0 0 100 100" width="100" height="100"><defs><radialGradient id="halo" cx="50%" cy="52%" r="52%"><stop offset="0" stop-color="#FF8787" stop-opacity="0.9"/><stop offset="0.55" stop-color="#FF8787" stop-opacity="0.4"/><stop offset="1" stop-color="#FF8787" stop-opacity="0"/></radialGradient><linearGradient id="box" x1="0" y1="0" x2="0" y2="1"><stop offset="0" stop-color="#FF8787" stop-opacity="1"/><stop offset="1" stop-color="#C92A2A" stop-opacity="1"/></linearGradient></defs><circle cx="50" cy="52" r="52" fill="url(#halo)"/><ellipse cx="50" cy="92" rx="22" ry="4.5" fill="#000000" opacity="0.11"/><rect x="24" y="44" width="52" height="40" rx="5" fill="url(#box)"/><rect x="20" y="36" width="60" height="12" rx="4" fill="#FA5252"/><rect x="45" y="36" width="10" height="48" fill="#FFD43B"/><path d="M50 36 C40 22 26 28 34 34 C40 38 50 36 50 36 Z" fill="#FFD43B"/><path d="M50 36 C60 22 74 28 66 34 C60 38 50 36 50 36 Z" fill="#FFD43B"/><circle cx="50" cy="35" r="4" fill="#FFE066"/><rect x="28" y="48" width="6" height="32" fill="#FFFFFF" opacity="0.18"/><path d="M34 49.5 L34.81 53.19 L38.5 54 L34.81 54.81 L34 58.5 L33.19 54.81 L29.5 54 L33.19 53.19 Z" fill="#FFFFFF" opacity="0.9"/><path d="M66 63 L66.54 65.46 L69 66 L66.54 66.54 L66 69 L65.46 66.54 L63 66 L65.46 65.46 Z" fill="#FFFFFF" opacity="0.8"/></svg>