<svg xmlns="http://www.w3.org/2000/svg" viewBox="0 0 100 100" width="100" height="100"><defs><radialGradient id="halo" cx="50%" cy="52%" r="52%"><stop offset="0" stop-color="#FF6B6B" stop-opacity="0.9"/><stop offset="0.55" stop-color="#FF6B6B" stop-opacity="0.4"/><stop offset="1" stop-color="#FF6B6B" stop-opacity="0"/></radialGradient><radialGradient id="b" cx="38%" cy="30%" r="85%"><stop offset="0" stop-color="#FFC9C9" stop-opacity="1"/><stop offset="40" stop-color="#FF5252" stop-opacity="1"/><stop offset="100" stop-color="#A51111" stop-opacity="1"/></radialGradient><linearGradient id="v" x1="0" y1="0" x2="0" y2="1"><stop offset="0.42" stop-color="#5A0808" stop-opacity="0"/><stop offset="1" stop-color="#5A0808" stop-opacity="0.5"/></linearGradient></defs><circle cx="50" cy="52" r="52" fill="url(#halo)"/><ellipse cx="50" cy="92" rx="22" ry="4.5" fill="#000000" opacity="0.11"/><path id="h" d="M50 84 C16 58 16 30 35 25 C45 22 50 31 50 36 C50 31 55 22 65 25 C84 30 84 58 50 84 Z" fill="url(#b)"/><path d="M50 84 C16 58 16 30 35 25 C45 22 50 31 50 36 C50 31 55 22 65 25 C84 30 84 58 50 84 Z" fill="url(#v)"/><path d="M30 34 C26 41 27 50 31 55 C35 47 36 39 41 33 C37 31 33 31 30 34 Z" fill="#FFFFFF" opacity="0.55"/><path d="M64 34.5 L64.99 39.01 L69.5 40 L64.99 40.99 L64 45.5 L63.01 40.99 L58.5 40 L63.01 39.01 Z" fill="#FFFFFF" opacity="0.95"/><path d="M44 62.5 L44.63 65.37 L47.5 66 L44.63 66.63 L44 69.5 L43.37 66.63 L40.5 66 L43.37 65.37 Z" fill="#FFFFFF" opacity="0.85"/></svg>