<svg xmlns="http://www.w3.org/2000/svg" viewBox="0 0 100 100" width="100" height="100"><defs><radialGradient id="halo" cx="50%" cy="52%" r="52%"><stop offset="0" stop-color="#C68A4A" stop-opacity="0.9"/><stop offset="0.55" stop-color="#C68A4A" stop-opacity="0.4"/><stop offset="1" stop-color="#C68A4A" stop-opacity="0"/></radialGradient><linearGradient id="h" x1="0" y1="0" x2="0" y2="1"><stop offset="0" stop-color="#A6713A" stop-opacity="1"/><stop offset="1" stop-color="#5A3A22" stop-opacity="1"/></linearGradient></defs><circle cx="50" cy="52" r="52" fill="url(#halo)"/><ellipse cx="50" cy="92" rx="22" ry="4.5" fill="#000000" opacity="0.11"/><ellipse cx="52" cy="60" rx="28" ry="19" fill="url(#h)"/><path d="M28 58 L34 38 L42 58 Z" fill="#8C5A2B"/><path d="M40 58 L48 32 L56 58 Z" fill="#A6713A"/><path d="M54 58 L62 34 L70 58 Z" fill="#8C5A2B"/><path d="M66 58 L74 40 L80 58 Z" fill="#A6713A"/><ellipse cx="32" cy="64" rx="12" ry="10" fill="#F0C896"/><circle cx="24" cy="66" r="3" fill="#3B2B22"/><circle cx="34" cy="60" r="2.4" fill="#3B2B22"/><path d="M72 48 L72.72 51.28 L76 52 L72.72 52.72 L72 56 L71.28 52.72 L68 52 L71.28 51.28 Z" fill="#FFFFFF" opacity="0.8"/></svg>