<svg xmlns="http://www.w3.org/2000/svg" viewBox="0 0 100 100" width="100" height="100"><defs><radialGradient id="halo" cx="50%" cy="52%" r="52%"><stop offset="0" stop-color="#FFB6C1" stop-opacity="0.9"/><stop offset="0.55" stop-color="#FFB6C1" stop-opacity="0.4"/><stop offset="1" stop-color="#FFB6C1" stop-opacity="0"/></radialGradient><linearGradient id="cone" x1="0" y1="0" x2="0" y2="1"><stop offset="0" stop-color="#F0C27B" stop-opacity="1"/><stop offset="1" stop-color="#B07B2E" stop-opacity="1"/></linearGradient><radialGradient id="s1" cx="40%" cy="35%" r="80%"><stop offset="0" stop-color="#FFF0F6" stop-opacity="1"/><stop offset="100" stop-color="#FF8FB1" stop-opacity="1"/></radialGradient><radialGradient id="s2" cx="40%" cy="35%" r="80%"><stop offset="0" stop-color="#FFFDEB" stop-opacity="1"/><stop offset="100" stop-color="#FFD8A8" stop-opacity="1"/></radialGradient></defs><circle cx="50" cy="52" r="52" fill="url(#halo)"/><ellipse cx="50" cy="92" rx="22" ry="4.5" fill="#000000" opacity="0.11"/><path d="M34 52 L66 52 L50 90 Z" fill="url(#cone)"/><path d="M40 56 L60 56 M37 62 L63 62" stroke="#8C5A1E" stroke-width="1.4" opacity="0.5"/><circle cx="42" cy="46" r="14" fill="url(#s2)"/><circle cx="58" cy="46" r="14" fill="url(#s1)"/><circle cx="50" cy="36" r="13" fill="url(#s1)"/><circle cx="50" cy="24" r="4" fill="#E03131"/><ellipse cx="46" cy="32" rx="3" ry="4" fill="#FFFFFF" opacity="0.5"/><path d="M68 29.5 L68.81 33.19 L72.5 34 L68.81 34.81 L68 38.5 L67.19 34.81 L63.5 34 L67.19 33.19 Z" fill="#FFFFFF" opacity="0.9"/><path d="M34 37 L34.54 39.46 L37 40 L34.54 40.54 L34 43 L33.46 40.54 L31 40 L33.46 39.46 Z" fill="#FFFFFF" opacity="0.8"/></svg>