<svg xmlns="http://www.w3.org/2000/svg" viewBox="0 0 100 100" width="100" height="100"><defs><radialGradient id="halo" cx="50%" cy="52%" r="52%"><stop offset="0" stop-color="#FFB6E1" stop-opacity="0.9"/><stop offset="0.55" stop-color="#FFB6E1" stop-opacity="0.4"/><stop offset="1" stop-color="#FFB6E1" stop-opacity="0"/></radialGradient><radialGradient id="j" cx="50%" cy="40%" r="75%"><stop offset="0" stop-color="#FFF0F6" stop-opacity="1"/><stop offset="55" stop-color="#FFA8D5" stop-opacity="1"/><stop offset="100" stop-color="#E64980" stop-opacity="1"/></radialGradient></defs><circle cx="50" cy="52" r="52" fill="url(#halo)"/><ellipse cx="50" cy="92" rx="22" ry="4.5" fill="#000000" opacity="0.11"/><path d="M24 50 C24 28 76 28 76 50 Q50 60 24 50 Z" fill="url(#j)"/><g stroke="#F783AC" stroke-width="3" stroke-linecap="round" opacity="0.85"><path d="M32 52 Q30 66 36 78"/><path d="M44 54 Q42 70 46 82"/><path d="M56 54 Q58 70 54 82"/><path d="M68 52 Q70 66 64 78"/></g><ellipse cx="44" cy="42" rx="8" ry="4" fill="#FFFFFF" opacity="0.6"/><path d="M72 36 L72.72 39.28 L76 40 L72.72 40.72 L72 44 L71.28 40.72 L68 40 L71.28 39.28 Z" fill="#FFFFFF" opacity="0.85"/></svg>