<svg xmlns="http://www.w3.org/2000/svg" viewBox="0 0 100 100" width="100" height="100"><defs><radialGradient id="halo" cx="50%" cy="52%" r="52%"><stop offset="0" stop-color="#FFD43B" stop-opacity="0.9"/><stop offset="0.55" stop-color="#FFD43B" stop-opacity="0.4"/><stop offset="1" stop-color="#FFD43B" stop-opacity="0"/></radialGradient><radialGradient id="b" cx="40%" cy="35%" r="80%"><stop offset="0" stop-color="#FFF3BF" stop-opacity="1"/><stop offset="45" stop-color="#FFD43B" stop-opacity="1"/><stop offset="100" stop-color="#E8950C" stop-opacity="1"/></radialGradient></defs><circle cx="50" cy="52" r="52" fill="url(#halo)"/><ellipse cx="50" cy="92" rx="22" ry="4.5" fill="#000000" opacity="0.11"/><circle cx="34" cy="34" r="16" fill="url(#b)"/><circle cx="34" cy="34" r="6.5" fill="#FFF7E0"/><rect x="44" y="44" width="40" height="9" rx="4" fill="url(#b)" transform="rotate(45 44 44)"/><rect x="66" y="62" width="10" height="9" rx="2" fill="url(#b)" transform="rotate(45 66 62)"/><rect x="74" y="70" width="10" height="9" rx="2" fill="url(#b)" transform="rotate(45 74 70)"/><circle cx="29" cy="29" r="3" fill="#FFFFFF" opacity="0.7"/><path d="M60 35 L60.9 39.1 L65 40 L60.9 40.9 L60 45 L59.1 40.9 L55 40 L59.1 39.1 Z" fill="#FFFFFF" opacity="0.9"/><path d="M48 63 L48.54 65.46 L51 66 L48.54 66.54 L48 69 L47.46 66.54 L45 66 L47.46 65.46 Z" fill="#FFFFFF" opacity="0.8"/></svg>