<svg xmlns="http://www.w3.org/2000/svg" viewBox="0 0 100 100" width="100" height="100"><defs><radialGradient id="halo" cx="50%" cy="52%" r="52%"><stop offset="0" stop-color="#FF8787" stop-opacity="0.9"/><stop offset="0.55" stop-color="#FF8787" stop-opacity="0.4"/><stop offset="1" stop-color="#FF8787" stop-opacity="0"/></radialGradient></defs><circle cx="50" cy="52" r="52" fill="url(#halo)"/><ellipse cx="50" cy="92" rx="22" ry="4.5" fill="#000000" opacity="0.11"/><path d="M50 14 L74 44 L50 74 L26 44 Z" fill="#FF6B6B"/><path d="M50 14 L50 74 M26 44 L74 44" stroke="#FFFFFF" stroke-width="2.5"/><path d="M50 14 L74 44 L50 44 Z" fill="#FFD43B"/><path d="M50 44 L74 44 L50 74 Z" fill="#4DABF7"/><path d="M26 44 L50 44 L50 74 Z" fill="#51CF66"/><path d="M50 74 Q54 82 48 86 Q56 90 50 96" stroke="#E8950C" stroke-width="2.5" fill="none"/><path d="M48 84 a3 3 0 1 0 0.1 0" fill="#FF6B6B"/><path d="M50 94 a2.6 2.6 0 1 0 0.1 0" fill="#4DABF7"/><path d="M60 25.5 L60.81 29.19 L64.5 30 L60.81 30.81 L60 34.5 L59.19 30.81 L55.5 30 L59.19 29.19 Z" fill="#FFFFFF" opacity="0.9"/><path d="M40 53 L40.54 55.46 L43 56 L40.54 56.54 L40 59 L39.46 56.54 L37 56 L39.46 55.46 Z" fill="#FFFFFF" opacity="0.8"/></svg>