<svg xmlns="http://www.w3.org/2000/svg" viewBox="0 0 100 100" width="100" height="100"><defs><radialGradient id="halo" cx="50%" cy="52%" r="52%"><stop offset="0" stop-color="#51CF66" stop-opacity="0.9"/><stop offset="0.55" stop-color="#51CF66" stop-opacity="0.4"/><stop offset="1" stop-color="#51CF66" stop-opacity="0"/></radialGradient><radialGradient id="b" cx="38%" cy="30%" r="85%"><stop offset="0" stop-color="#D3F9D8" stop-opacity="1"/><stop offset="45" stop-color="#51CF66" stop-opacity="1"/><stop offset="100" stop-color="#2B8A3E" stop-opacity="1"/></radialGradient></defs><circle cx="50" cy="52" r="52" fill="url(#halo)"/><ellipse cx="50" cy="92" rx="22" ry="4.5" fill="#000000" opacity="0.11"/><path d="M50 14 C72 28 72 66 50 88 C28 66 28 28 50 14 Z" fill="url(#b)"/><path d="M50 18 L50 84" stroke="#2B8A3E" stroke-width="2.4" stroke-linecap="round" opacity="0.7"/><path d="M50 38 L62 32 M50 52 L64 48 M50 66 L60 64 M50 38 L38 32 M50 52 L36 48" stroke="#2B8A3E" stroke-width="1.6" opacity="0.5" fill="none"/><path d="M40 30 C36 40 37 52 42 60" stroke="#FFFFFF" stroke-width="3" opacity="0.35" fill="none" stroke-linecap="round"/><path d="M58 23 L58.9 27.1 L63 28 L58.9 28.9 L58 33 L57.1 28.9 L53 28 L57.1 27.1 Z" fill="#FFFFFF" opacity="0.9"/><path d="M44 69 L44.54 71.46 L47 72 L44.54 72.54 L44 75 L43.46 72.54 L41 72 L43.46 71.46 Z" fill="#FFFFFF" opacity="0.8"/></svg>