<svg xmlns="http://www.w3.org/2000/svg" viewBox="0 0 100 100" width="100" height="100"><defs><radialGradient id="halo" cx="50%" cy="52%" r="52%"><stop offset="0" stop-color="#FFE066" stop-opacity="0.9"/><stop offset="0.55" stop-color="#FFE066" stop-opacity="0.4"/><stop offset="1" stop-color="#FFE066" stop-opacity="0"/></radialGradient><radialGradient id="b" cx="42%" cy="36%" r="80%"><stop offset="0" stop-color="#FFFDEB" stop-opacity="1"/><stop offset="55" stop-color="#FFE066" stop-opacity="1"/><stop offset="100" stop-color="#FAB005" stop-opacity="1"/></radialGradient></defs><circle cx="50" cy="52" r="52" fill="url(#halo)"/><ellipse cx="50" cy="92" rx="22" ry="4.5" fill="#000000" opacity="0.11"/><g stroke="#FFD43B" stroke-width="3" stroke-linecap="round"><path d="M50 8 L50 16"/><path d="M22 22 L28 28"/><path d="M78 22 L72 28"/><path d="M14 50 L22 50"/><path d="M86 50 L78 50"/></g><circle cx="50" cy="48" r="24" fill="url(#b)"/><path d="M40 66 Q50 72 60 66 L60 74 Q50 78 40 74 Z" fill="#ADB5BD"/><rect x="42" y="74" width="16" height="5" rx="2" fill="#868E96"/><path d="M44 40 C42 48 44 56 50 62 M56 40 C58 48 56 56 50 62" stroke="#E8950C" stroke-width="2" fill="none" opacity="0.6"/><ellipse cx="40" cy="38" rx="5" ry="8" fill="#FFFFFF" opacity="0.5"/><path d="M70 25 L70.9 29.1 L75 30 L70.9 30.9 L70 35 L69.1 30.9 L65 30 L69.1 29.1 Z" fill="#FFFFFF" opacity="0.95"/><path d="M30 57 L30.54 59.46 L33 60 L30.54 60.54 L30 63 L29.46 60.54 L27 60 L29.46 59.46 Z" fill="#FFFFFF" opacity="0.8"/></svg>