<svg xmlns="http://www.w3.org/2000/svg" viewBox="0 0 100 100" width="100" height="100"><defs><radialGradient id="halo" cx="50%" cy="52%" r="52%"><stop offset="0" stop-color="#E7F5FF" stop-opacity="0.9"/><stop offset="0.55" stop-color="#E7F5FF" stop-opacity="0.4"/><stop offset="1" stop-color="#E7F5FF" stop-opacity="0"/></radialGradient><linearGradient id="b" x1="0" y1="0" x2="0" y2="1"><stop offset="0" stop-color="#FFFFFF" stop-opacity="1"/><stop offset="100" stop-color="#D0EBFF" stop-opacity="1"/></linearGradient></defs><circle cx="50" cy="52" r="52" fill="url(#halo)"/><ellipse cx="50" cy="92" rx="22" ry="4.5" fill="#000000" opacity="0.11"/><path d="M34 44 L50 30 L66 44 L66 82 L34 82 Z" fill="url(#b)"/><path d="M34 44 L50 30 L66 44 Z" fill="#A5D8FF"/><rect x="34" y="56" width="32" height="12" fill="#4DABF7"/><circle cx="50" cy="62" r="4" fill="#FFF"/><path d="M40 46 L40 78" stroke="#FFF" stroke-width="2" opacity="0.4"/><path d="M60 46 L60.72 49.28 L64 50 L60.72 50.72 L60 54 L59.28 50.72 L56 50 L59.28 49.28 Z" fill="#FFFFFF" opacity="0.85"/><path d="M40 69 L40.54 71.46 L43 72 L40.54 72.54 L40 75 L39.46 72.54 L37 72 L39.46 71.46 Z" fill="#FFFFFF" opacity="0.75"/></svg>