<svg xmlns="http://www.w3.org/2000/svg" viewBox="0 0 100 100" width="100" height="100"><defs><radialGradient id="halo" cx="50%" cy="52%" r="52%"><stop offset="0" stop-color="#FF8787" stop-opacity="0.9"/><stop offset="0.55" stop-color="#FF8787" stop-opacity="0.4"/><stop offset="1" stop-color="#FF8787" stop-opacity="0"/></radialGradient><linearGradient id="m" x1="0" y1="0" x2="0" y2="1"><stop offset="0" stop-color="#FF8787" stop-opacity="1"/><stop offset="1" stop-color="#C92A2A" stop-opacity="1"/></linearGradient></defs><circle cx="50" cy="52" r="52" fill="url(#halo)"/><ellipse cx="50" cy="92" rx="22" ry="4.5" fill="#000000" opacity="0.11"/><path d="M38 38 C30 38 28 58 32 72 Q36 82 52 82 Q68 82 68 66 L68 42 C68 36 40 36 38 38 Z" fill="url(#m)"/><path d="M30 50 C21 48 19 62 29 66 L35 58 Z" fill="url(#m)"/><rect x="30" y="32" width="40" height="10" rx="5" fill="#FFFFFF"/><path d="M46 52 Q54 56 62 52" stroke="#FFFFFF" stroke-width="2" fill="none" opacity="0.4"/><path d="M66 38 L66.72 41.28 L70 42 L66.72 42.72 L66 46 L65.28 42.72 L62 42 L65.28 41.28 Z" fill="#FFFFFF" opacity="0.8"/></svg>