<svg xmlns="http://www.w3.org/2000/svg" viewBox="0 0 100 100" width="100" height="100"><defs><radialGradient id="halo" cx="50%" cy="52%" r="52%"><stop offset="0" stop-color="#FFE066" stop-opacity="0.9"/><stop offset="0.55" stop-color="#FFE066" stop-opacity="0.4"/><stop offset="1" stop-color="#FFE066" stop-opacity="0"/></radialGradient><linearGradient id="b" x1="0" y1="0" x2="1" y2="1"><stop offset="0" stop-color="#FFF9DB" stop-opacity="1"/><stop offset="1" stop-color="#FFD43B" stop-opacity="1"/></linearGradient></defs><circle cx="50" cy="52" r="52" fill="url(#halo)"/><ellipse cx="50" cy="92" rx="22" ry="4.5" fill="#000000" opacity="0.11"/><path d="M64 16 A36 36 0 1 0 64 84 A28 28 0 1 1 64 16 Z" fill="url(#b)"/><circle cx="40" cy="38" r="4" fill="#F2C200" opacity="0.5"/><circle cx="34" cy="58" r="3" fill="#F2C200" opacity="0.5"/><circle cx="48" cy="64" r="2.4" fill="#F2C200" opacity="0.5"/><path d="M70 25 L70.9 29.1 L75 30 L70.9 30.9 L70 35 L69.1 30.9 L65 30 L69.1 29.1 Z" fill="#FFFFFF" opacity="0.95"/><path d="M74 56.5 L74.63 59.37 L77.5 60 L74.63 60.63 L74 63.5 L73.37 60.63 L70.5 60 L73.37 59.37 Z" fill="#FFFFFF" opacity="0.85"/></svg>