<svg xmlns="http://www.w3.org/2000/svg" viewBox="0 0 100 100" width="100" height="100"><defs><radialGradient id="halo" cx="50%" cy="52%" r="52%"><stop offset="0" stop-color="#B197FC" stop-opacity="0.9"/><stop offset="0.55" stop-color="#B197FC" stop-opacity="0.4"/><stop offset="1" stop-color="#B197FC" stop-opacity="0"/></radialGradient><linearGradient id="b" x1="0" y1="0" x2="0" y2="1"><stop offset="0" stop-color="#B197FC" stop-opacity="1"/><stop offset="1" stop-color="#6741D9" stop-opacity="1"/></linearGradient></defs><circle cx="50" cy="52" r="52" fill="url(#halo)"/><ellipse cx="50" cy="92" rx="22" ry="4.5" fill="#000000" opacity="0.11"/><rect x="58" y="22" width="6" height="44" rx="3" fill="url(#b)"/><rect x="38" y="28" width="6" height="44" rx="3" fill="url(#b)"/><path d="M41 22 L64 18 L64 30 L41 34 Z" fill="url(#b)"/><ellipse cx="36" cy="72" rx="11" ry="8" fill="url(#b)" transform="rotate(-18 36 72)"/><ellipse cx="56" cy="66" rx="11" ry="8" fill="url(#b)" transform="rotate(-18 56 66)"/><ellipse cx="33" cy="69" rx="3.5" ry="2.5" fill="#FFFFFF" opacity="0.4" transform="rotate(-18 33 69)"/><path d="M70 25.5 L70.81 29.19 L74.5 30 L70.81 30.81 L70 34.5 L69.19 30.81 L65.5 30 L69.19 29.19 Z" fill="#FFFFFF" opacity="0.9"/><path d="M48 49 L48.54 51.46 L51 52 L48.54 52.54 L48 55 L47.46 52.54 L45 52 L47.46 51.46 Z" fill="#FFFFFF" opacity="0.8"/></svg>