<svg xmlns="http://www.w3.org/2000/svg" viewBox="0 0 100 100" width="100" height="100"><defs><radialGradient id="halo" cx="50%" cy="52%" r="52%"><stop offset="0" stop-color="#E599F7" stop-opacity="0.9"/><stop offset="0.55" stop-color="#E599F7" stop-opacity="0.4"/><stop offset="1" stop-color="#E599F7" stop-opacity="0"/></radialGradient><radialGradient id="o" cx="42%" cy="34%" r="80%"><stop offset="0" stop-color="#FFD6F5" stop-opacity="1"/><stop offset="50" stop-color="#DA77F2" stop-opacity="1"/><stop offset="100" stop-color="#9C36B5" stop-opacity="1"/></radialGradient></defs><circle cx="50" cy="52" r="52" fill="url(#halo)"/><ellipse cx="50" cy="92" rx="22" ry="4.5" fill="#000000" opacity="0.11"/><path d="M28 54 C28 32 72 32 72 54 L72 64 Q66 60 62 66 Q58 60 54 66 Q50 60 46 66 Q42 60 38 66 Q34 60 28 64 Z" fill="url(#o)"/><circle cx="42" cy="48" r="5" fill="#FFFFFF"/><circle cx="58" cy="48" r="5" fill="#FFFFFF"/><circle cx="42" cy="48" r="2.4" fill="#3B1B47"/><circle cx="58" cy="48" r="2.4" fill="#3B1B47"/><circle cx="50" cy="42" r="6" fill="#FFFFFF" opacity="0.25"/><path d="M70 36 L70.72 39.28 L74 40 L70.72 40.72 L70 44 L69.28 40.72 L66 40 L69.28 39.28 Z" fill="#FFFFFF" opacity="0.8"/></svg>