<svg xmlns="http://www.w3.org/2000/svg" viewBox="0 0 100 100" width="100" height="100"><defs><radialGradient id="halo" cx="50%" cy="52%" r="52%"><stop offset="0" stop-color="#C68A4A" stop-opacity="0.9"/><stop offset="0.55" stop-color="#C68A4A" stop-opacity="0.4"/><stop offset="1" stop-color="#C68A4A" stop-opacity="0"/></radialGradient><linearGradient id="o" x1="0" y1="0" x2="0" y2="1"><stop offset="0" stop-color="#C68A4A" stop-opacity="1"/><stop offset="1" stop-color="#8C5A2B" stop-opacity="1"/></linearGradient></defs><circle cx="50" cy="52" r="52" fill="url(#halo)"/><ellipse cx="50" cy="92" rx="22" ry="4.5" fill="#000000" opacity="0.11"/><path d="M30 26 L40 40 L26 40 Z" fill="url(#o)"/><path d="M70 26 L60 40 L74 40 Z" fill="url(#o)"/><ellipse cx="50" cy="56" rx="24" ry="26" fill="url(#o)"/><circle cx="40" cy="48" r="10" fill="#FFFFFF"/><circle cx="60" cy="48" r="10" fill="#FFFFFF"/><circle cx="40" cy="48" r="5" fill="#3B2B22"/><circle cx="60" cy="48" r="5" fill="#3B2B22"/><path d="M46 56 L54 56 L50 64 Z" fill="#FFA94D"/><path d="M72 38 L72.72 41.28 L76 42 L72.72 42.72 L72 46 L71.28 42.72 L68 42 L71.28 41.28 Z" fill="#FFFFFF" opacity="0.85"/></svg>