<svg xmlns="http://www.w3.org/2000/svg" viewBox="0 0 100 100" width="100" height="100"><defs><radialGradient id="halo" cx="50%" cy="52%" r="52%"><stop offset="0" stop-color="#A5D8FF" stop-opacity="0.9"/><stop offset="0.55" stop-color="#A5D8FF" stop-opacity="0.4"/><stop offset="1" stop-color="#A5D8FF" stop-opacity="0"/></radialGradient><linearGradient id="b" x1="0" y1="0" x2="0" y2="1"><stop offset="0" stop-color="#495057" stop-opacity="1"/><stop offset="1" stop-color="#212529" stop-opacity="1"/></linearGradient></defs><circle cx="50" cy="52" r="52" fill="url(#halo)"/><ellipse cx="50" cy="92" rx="22" ry="4.5" fill="#000000" opacity="0.11"/><ellipse cx="50" cy="54" rx="22" ry="28" fill="url(#b)"/><ellipse cx="50" cy="58" rx="14" ry="22" fill="#FFFFFF"/><circle cx="43" cy="40" r="2.6" fill="#FFFFFF"/><circle cx="57" cy="40" r="2.6" fill="#FFFFFF"/><circle cx="43" cy="40" r="1.4" fill="#1A1A2E"/><circle cx="57" cy="40" r="1.4" fill="#1A1A2E"/><path d="M46 46 L54 46 L50 52 Z" fill="#FFA94D"/><path d="M40 80 L34 86 L46 84 Z" fill="#FFA94D"/><path d="M60 80 L66 86 L54 84 Z" fill="#FFA94D"/><path d="M70 34 L70.72 37.28 L74 38 L70.72 38.72 L70 42 L69.28 38.72 L66 38 L69.28 37.28 Z" fill="#FFFFFF" opacity="0.85"/></svg>