<svg xmlns="http://www.w3.org/2000/svg" viewBox="0 0 100 100" width="100" height="100"><defs><radialGradient id="halo" cx="50%" cy="52%" r="52%"><stop offset="0" stop-color="#FFA94D" stop-opacity="0.9"/><stop offset="0.55" stop-color="#FFA94D" stop-opacity="0.4"/><stop offset="1" stop-color="#FFA94D" stop-opacity="0"/></radialGradient><linearGradient id="ch" x1="0" y1="0" x2="0" y2="1"><stop offset="0" stop-color="#FFE066" stop-opacity="1"/><stop offset="1" stop-color="#FFC078" stop-opacity="1"/></linearGradient></defs><circle cx="50" cy="52" r="52" fill="url(#halo)"/><ellipse cx="50" cy="92" rx="22" ry="4.5" fill="#000000" opacity="0.11"/><path d="M50 16 L80 78 Q50 90 20 78 Z" fill="url(#ch)"/><path d="M20 78 Q50 90 80 78 L84 84 Q50 96 16 84 Z" fill="#E8950C"/><circle cx="44" cy="50" r="5" fill="#E03131"/><circle cx="60" cy="58" r="5" fill="#E03131"/><circle cx="50" cy="70" r="4.5" fill="#E03131"/><circle cx="38" cy="66" r="3.5" fill="#C92A2A"/><circle cx="52" cy="38" r="2.6" fill="#51CF66"/><circle cx="62" cy="44" r="2.4" fill="#51CF66"/><path d="M40 30 L40.72 33.28 L44 34 L40.72 34.72 L40 38 L39.28 34.72 L36 34 L39.28 33.28 Z" fill="#FFFFFF" opacity="0.9"/><path d="M66 65 L66.54 67.46 L69 68 L66.54 68.54 L66 71 L65.46 68.54 L63 68 L65.46 67.46 Z" fill="#FFFFFF" opacity="0.75"/></svg>