<svg xmlns="http://www.w3.org/2000/svg" viewBox="0 0 100 100" width="100" height="100"><defs><radialGradient id="halo" cx="50%" cy="52%" r="52%"><stop offset="0" stop-color="#F8C5D8" stop-opacity="0.9"/><stop offset="0.55" stop-color="#F8C5D8" stop-opacity="0.4"/><stop offset="1" stop-color="#F8C5D8" stop-opacity="0"/></radialGradient><radialGradient id="b" cx="42%" cy="32%" r="80%"><stop offset="0" stop-color="#FFFFFF" stop-opacity="1"/><stop offset="70" stop-color="#F5F0F7" stop-opacity="1"/><stop offset="100" stop-color="#D9CFE0" stop-opacity="1"/></radialGradient></defs><circle cx="50" cy="52" r="52" fill="url(#halo)"/><ellipse cx="50" cy="92" rx="22" ry="4.5" fill="#000000" opacity="0.11"/><ellipse cx="40" cy="30" rx="7" ry="19" fill="url(#b)" transform="rotate(-12 40 30)"/><ellipse cx="60" cy="30" rx="7" ry="19" fill="url(#b)" transform="rotate(12 60 30)"/><ellipse cx="40" cy="30" rx="3" ry="12" fill="#F8C5D8" transform="rotate(-12 40 30)"/><ellipse cx="60" cy="30" rx="3" ry="12" fill="#F8C5D8" transform="rotate(12 60 30)"/><circle cx="50" cy="60" r="23" fill="url(#b)"/><circle cx="42" cy="57" r="2.6" fill="#5B4B57"/><circle cx="58" cy="57" r="2.6" fill="#5B4B57"/><ellipse cx="50" cy="64" rx="3.2" ry="2.4" fill="#F06595"/><circle cx="39" cy="64" r="3.6" fill="#FFC9DE" opacity="0.7"/><circle cx="61" cy="64" r="3.6" fill="#FFC9DE" opacity="0.7"/><path d="M66 43 L66.9 47.1 L71 48 L66.9 48.9 L66 53 L65.1 48.9 L61 48 L65.1 47.1 Z" fill="#FFFFFF" opacity="0.9"/><path d="M34 65 L34.54 67.46 L37 68 L34.54 68.54 L34 71 L33.46 68.54 L31 68 L33.46 67.46 Z" fill="#FFFFFF" opacity="0.8"/></svg>