<svg xmlns="http://www.w3.org/2000/svg" viewBox="0 0 100 100" width="100" height="100"><defs><radialGradient id="halo" cx="50%" cy="52%" r="52%"><stop offset="0" stop-color="#FF8FB1" stop-opacity="0.9"/><stop offset="0.55" stop-color="#FF8FB1" stop-opacity="0.4"/><stop offset="1" stop-color="#FF8FB1" stop-opacity="0"/></radialGradient></defs><circle cx="50" cy="52" r="52" fill="url(#halo)"/><ellipse cx="50" cy="92" rx="22" ry="4.5" fill="#000000" opacity="0.11"/><g fill="none" stroke-width="6" stroke-linecap="round"><path d="M16 74 A34 34 0 0 1 84 74" stroke="#FF6B6B"/><path d="M24 74 A26 26 0 0 1 76 74" stroke="#FFA94D"/><path d="M32 74 A18 18 0 0 1 68 74" stroke="#FFD43B"/><path d="M40 74 A10 10 0 0 1 60 74" stroke="#51CF66"/></g><g fill="#FFFFFF"><circle cx="18" cy="76" r="8"/><circle cx="26" cy="78" r="7"/><circle cx="82" cy="76" r="8"/><circle cx="74" cy="78" r="7"/></g><path d="M50 25.5 L50.81 29.19 L54.5 30 L50.81 30.81 L50 34.5 L49.19 30.81 L45.5 30 L49.19 29.19 Z" fill="#FFFFFF" opacity="0.85"/></svg>