<svg xmlns="http://www.w3.org/2000/svg" viewBox="0 0 100 100" width="100" height="100"><defs><radialGradient id="halo" cx="50%" cy="52%" r="52%"><stop offset="0" stop-color="#FFD43B" stop-opacity="0.9"/><stop offset="0.55" stop-color="#FFD43B" stop-opacity="0.4"/><stop offset="1" stop-color="#FFD43B" stop-opacity="0"/></radialGradient><radialGradient id="b" cx="42%" cy="34%" r="80%"><stop offset="0" stop-color="#FFF9DB" stop-opacity="1"/><stop offset="50" stop-color="#FFD43B" stop-opacity="1"/><stop offset="100" stop-color="#E8950C" stop-opacity="1"/></radialGradient></defs><circle cx="50" cy="52" r="52" fill="url(#halo)"/><ellipse cx="50" cy="92" rx="22" ry="4.5" fill="#000000" opacity="0.11"/><path d="M36 14 L48 50 L40 52 L30 18 Z" fill="#FF6B6B"/><path d="M64 14 L52 50 L60 52 L70 18 Z" fill="#4DABF7"/><circle cx="50" cy="64" r="24" fill="url(#b)"/><circle cx="50" cy="64" r="17" fill="none" stroke="#E8950C" stroke-width="2" opacity="0.6"/><path d="M50 52 L54 62 L65 62 L56 69 L59 80 L50 73 L41 80 L44 69 L35 62 L46 62 Z" fill="#FFB000"/><ellipse cx="42" cy="56" rx="5" ry="7" fill="#FFFFFF" opacity="0.35"/><path d="M70 47 L70.9 51.1 L75 52 L70.9 52.9 L70 57 L69.1 52.9 L65 52 L69.1 51.1 Z" fill="#FFFFFF" opacity="0.95"/><path d="M32 68.5 L32.63 71.37 L35.5 72 L32.63 72.63 L32 75.5 L31.37 72.63 L28.5 72 L31.37 71.37 Z" fill="#FFFFFF" opacity="0.85"/></svg>