<svg xmlns="http://www.w3.org/2000/svg" viewBox="0 0 100 100" width="100" height="100"><defs><radialGradient id="halo" cx="50%" cy="52%" r="52%"><stop offset="0" stop-color="#E599F7" stop-opacity="0.9"/><stop offset="0.55" stop-color="#E599F7" stop-opacity="0.4"/><stop offset="1" stop-color="#E599F7" stop-opacity="0"/></radialGradient><linearGradient id="b" x1="0" y1="0" x2="1" y2="1"><stop offset="0" stop-color="#FF9AA2" stop-opacity="1"/><stop offset="25" stop-color="#FFD43B" stop-opacity="1"/><stop offset="50" stop-color="#69DB7C" stop-opacity="1"/><stop offset="75" stop-color="#4DABF7" stop-opacity="1"/><stop offset="100" stop-color="#B197FC" stop-opacity="1"/></linearGradient></defs><circle cx="50" cy="52" r="52" fill="url(#halo)"/><ellipse cx="50" cy="92" rx="22" ry="4.5" fill="#000000" opacity="0.11"/><path d="M30 36 L70 36 L84 50 L50 88 L16 50 Z" fill="url(#b)"/><path d="M30 36 L40 50 L60 50 L70 36 Z" fill="#FFFFFF" opacity="0.35"/><path d="M40 50 L60 50 L50 88 Z" fill="#FFFFFF" opacity="0.12"/><path d="M33 40 L44 40" stroke="#FFFFFF" stroke-width="2" opacity="0.7" stroke-linecap="round"/><path d="M66 36 L67.08 40.92 L72 42 L67.08 43.08 L66 48 L64.92 43.08 L60 42 L64.92 40.92 Z" fill="#FFFFFF" opacity="1.0"/><path d="M38 58 L38.72 61.28 L42 62 L38.72 62.72 L38 66 L37.28 62.72 L34 62 L37.28 61.28 Z" fill="#FFFFFF" opacity="0.9"/><path d="M74 53 L74.54 55.46 L77 56 L74.54 56.54 L74 59 L73.46 56.54 L71 56 L73.46 55.46 Z" fill="#FFFFFF" opacity="0.85"/><path d="M50 26.5 L50.63 29.37 L53.5 30 L50.63 30.63 L50 33.5 L49.37 30.63 L46.5 30 L49.37 29.37 Z" fill="#FFFFFF" opacity="0.9"/></svg>