<svg xmlns="http://www.w3.org/2000/svg" viewBox="0 0 100 100" width="100" height="100"><defs><radialGradient id="halo" cx="50%" cy="52%" r="52%"><stop offset="0" stop-color="#FFD43B" stop-opacity="0.9"/><stop offset="0.55" stop-color="#FFD43B" stop-opacity="0.4"/><stop offset="1" stop-color="#FFD43B" stop-opacity="0"/></radialGradient><linearGradient id="b" x1="0" y1="0" x2="0" y2="1"><stop offset="0" stop-color="#FFF9DB" stop-opacity="1"/><stop offset="1" stop-color="#E8950C" stop-opacity="1"/></linearGradient></defs><circle cx="50" cy="52" r="52" fill="url(#halo)"/><ellipse cx="50" cy="92" rx="22" ry="4.5" fill="#000000" opacity="0.11"/><path d="M20 72 L16 32 L34 48 L50 22 L66 48 L84 32 L80 72 Z" fill="url(#b)"/><rect x="20" y="72" width="60" height="11" rx="3" fill="#E8950C"/><circle cx="50" cy="24" r="5" fill="#FF6B6B"/><circle cx="50" cy="24" r="2" fill="#FFFFFF" opacity="0.7"/><circle cx="16" cy="32" r="4" fill="#4DABF7"/><circle cx="84" cy="32" r="4" fill="#51CF66"/><circle cx="34" cy="76" r="3" fill="#51CF66"/><circle cx="50" cy="76" r="3" fill="#FF6B6B"/><circle cx="66" cy="76" r="3" fill="#4DABF7"/><circle cx="34" cy="50" r="3" fill="#E599F7"/><circle cx="66" cy="50" r="3" fill="#E599F7"/><path d="M32 39 L32.9 43.1 L37 44 L32.9 44.9 L32 49 L31.1 44.9 L27 44 L31.1 43.1 Z" fill="#FFFFFF" opacity="1.0"/><path d="M68 40 L68.72 43.28 L72 44 L68.72 44.72 L68 48 L67.28 44.72 L64 44 L67.28 43.28 Z" fill="#FFFFFF" opacity="0.9"/><path d="M50 57 L50.54 59.46 L53 60 L50.54 60.54 L50 63 L49.46 60.54 L47 60 L49.46 59.46 Z" fill="#FFFFFF" opacity="0.85"/></svg>