<svg xmlns="http://www.w3.org/2000/svg" viewBox="0 0 100 100" width="100" height="100"><defs><radialGradient id="halo" cx="50%" cy="52%" r="52%"><stop offset="0" stop-color="#FF8787" stop-opacity="0.9"/><stop offset="0.55" stop-color="#FF8787" stop-opacity="0.4"/><stop offset="1" stop-color="#FF8787" stop-opacity="0"/></radialGradient><linearGradient id="b" x1="0" y1="0" x2="0" y2="1"><stop offset="0" stop-color="#FFFFFF" stop-opacity="1"/><stop offset="1" stop-color="#CED4DA" stop-opacity="1"/></linearGradient></defs><circle cx="50" cy="52" r="52" fill="url(#halo)"/><ellipse cx="50" cy="92" rx="22" ry="4.5" fill="#000000" opacity="0.11"/><path d="M50 14 C64 28 64 52 58 66 L42 66 C36 52 36 28 50 14 Z" fill="url(#b)"/><path d="M50 14 C58 24 60 40 58 52 L42 52 C40 40 42 24 50 14 Z" fill="#FF6B6B" opacity="0.25"/><circle cx="50" cy="38" r="7" fill="#74C0FC"/><circle cx="50" cy="38" r="3" fill="#1971C2"/><path d="M42 60 L30 72 L42 70 Z" fill="#FA5252"/><path d="M58 60 L70 72 L58 70 Z" fill="#FA5252"/><path d="M44 66 Q50 86 56 66 Z" fill="#FFA94D"/><path d="M70 26 L70.72 29.28 L74 30 L70.72 30.72 L70 34 L69.28 30.72 L66 30 L69.28 29.28 Z" fill="#FFFFFF" opacity="0.85"/></svg>