<svg xmlns="http://www.w3.org/2000/svg" viewBox="0 0 100 100" width="100" height="100"><defs><radialGradient id="halo" cx="50%" cy="52%" r="52%"><stop offset="0" stop-color="#74C0FC" stop-opacity="0.9"/><stop offset="0.55" stop-color="#74C0FC" stop-opacity="0.4"/><stop offset="1" stop-color="#74C0FC" stop-opacity="0"/></radialGradient><linearGradient id="hull" x1="0" y1="0" x2="0" y2="1"><stop offset="0" stop-color="#FF8787" stop-opacity="1"/><stop offset="1" stop-color="#C92A2A" stop-opacity="1"/></linearGradient><linearGradient id="wave" x1="0" y1="0" x2="0" y2="1"><stop offset="0" stop-color="#A5D8FF" stop-opacity="1"/><stop offset="1" stop-color="#4DABF7" stop-opacity="1"/></linearGradient></defs><circle cx="50" cy="52" r="52" fill="url(#halo)"/><ellipse cx="50" cy="92" rx="22" ry="4.5" fill="#000000" opacity="0.11"/><path d="M52 20 L52 60 L80 60 Z" fill="#FFFFFF"/><path d="M48 24 L48 60 L24 60 Z" fill="#E9ECEF"/><rect x="49" y="18" width="3" height="44" rx="1.5" fill="#8C5A1E"/><path d="M20 64 L80 64 L72 78 Q50 84 28 78 Z" fill="url(#hull)"/><path d="M14 82 Q26 76 38 82 T62 82 T86 82" stroke="url(#wave)" stroke-width="4" fill="none" stroke-linecap="round"/><path d="M70 31.5 L70.81 35.19 L74.5 36 L70.81 36.81 L70 40.5 L69.19 36.81 L65.5 36 L69.19 35.19 Z" fill="#FFFFFF" opacity="0.9"/><path d="M30 37 L30.54 39.46 L33 40 L30.54 40.54 L30 43 L29.46 40.54 L27 40 L29.46 39.46 Z" fill="#FFFFFF" opacity="0.8"/></svg>