<svg xmlns="http://www.w3.org/2000/svg" viewBox="0 0 100 100" width="100" height="100"><defs><radialGradient id="halo" cx="50%" cy="52%" r="52%"><stop offset="0" stop-color="#FFA94D" stop-opacity="0.9"/><stop offset="0.55" stop-color="#FFA94D" stop-opacity="0.4"/><stop offset="1" stop-color="#FFA94D" stop-opacity="0"/></radialGradient><linearGradient id="s" x1="0" y1="0" x2="0" y2="1"><stop offset="0" stop-color="#FFE066" stop-opacity="1"/><stop offset="1" stop-color="#E8590C" stop-opacity="1"/></linearGradient></defs><circle cx="50" cy="52" r="52" fill="url(#halo)"/><ellipse cx="50" cy="92" rx="22" ry="4.5" fill="#000000" opacity="0.11"/><path d="M44 22 C30 22 28 40 38 46 C30 54 30 70 44 78 C40 64 48 58 52 50 C56 40 60 36 56 28 C54 22 50 22 44 22 Z" fill="url(#s)"/><path d="M44 20 Q40 14 34 18 Q42 18 44 24 Z" fill="#E8950C"/><path d="M50 28 L62 24 L56 32 Z" fill="#FFD43B"/><circle cx="42" cy="30" r="2.6" fill="#3B2B22"/><path d="M44 70 q6 4 4 10 q-6 -2 -4 -10" fill="#E8950C"/><path d="M66 32 L66.72 35.28 L70 36 L66.72 36.72 L66 40 L65.28 36.72 L62 36 L65.28 35.28 Z" fill="#FFFFFF" opacity="0.8"/></svg>