<svg xmlns="http://www.w3.org/2000/svg" viewBox="0 0 100 100" width="100" height="100"><defs><radialGradient id="halo" cx="50%" cy="52%" r="52%"><stop offset="0" stop-color="#FFD8A8" stop-opacity="0.9"/><stop offset="0.55" stop-color="#FFD8A8" stop-opacity="0.4"/><stop offset="1" stop-color="#FFD8A8" stop-opacity="0"/></radialGradient><radialGradient id="s" cx="50%" cy="82%" r="80%"><stop offset="0" stop-color="#FFF3E0" stop-opacity="1"/><stop offset="55" stop-color="#FFC078" stop-opacity="1"/><stop offset="100" stop-color="#E8950C" stop-opacity="1"/></radialGradient></defs><circle cx="50" cy="52" r="52" fill="url(#halo)"/><ellipse cx="50" cy="92" rx="22" ry="4.5" fill="#000000" opacity="0.11"/><path d="M50 24 C24 28 16 64 24 80 Q50 72 76 80 C84 64 76 28 50 24 Z" fill="url(#s)"/><g stroke="#D9881F" stroke-width="2" opacity="0.6" fill="none" stroke-linecap="round"><path d="M50 32 L50 76"/><path d="M40 34 L33 74"/><path d="M60 34 L67 74"/><path d="M32 40 L23 76"/><path d="M68 40 L77 76"/></g><circle cx="50" cy="28" r="5" fill="#FFF7E0"/><path d="M72 36 L72.72 39.28 L76 40 L72.72 40.72 L72 44 L71.28 40.72 L68 40 L71.28 39.28 Z" fill="#FFFFFF" opacity="0.8"/></svg>