<svg xmlns="http://www.w3.org/2000/svg" viewBox="0 0 100 100" width="100" height="100"><defs><radialGradient id="halo" cx="50%" cy="52%" r="52%"><stop offset="0" stop-color="#4DABF7" stop-opacity="0.9"/><stop offset="0.55" stop-color="#4DABF7" stop-opacity="0.4"/><stop offset="1" stop-color="#4DABF7" stop-opacity="0"/></radialGradient><linearGradient id="s" x1="0" y1="0" x2="0" y2="1"><stop offset="0" stop-color="#74C0FC" stop-opacity="1"/><stop offset="1" stop-color="#1971C2" stop-opacity="1"/></linearGradient></defs><circle cx="50" cy="52" r="52" fill="url(#halo)"/><ellipse cx="50" cy="92" rx="22" ry="4.5" fill="#000000" opacity="0.11"/><path d="M50 16 L78 26 C78 56 66 76 50 84 C34 76 22 56 22 26 Z" fill="url(#s)"/><path d="M50 16 L50 84 C34 76 22 56 22 26 Z" fill="#1864AB" opacity="0.3"/><path d="M50 30 L50 64 M36 47 L64 47" stroke="#FFD43B" stroke-width="6" stroke-linecap="round"/><circle cx="42" cy="30" r="3" fill="#FFFFFF" opacity="0.5"/><path d="M70 28 L70.72 31.28 L74 32 L70.72 32.72 L70 36 L69.28 32.72 L66 32 L69.28 31.28 Z" fill="#FFFFFF" opacity="0.85"/></svg>