<svg xmlns="http://www.w3.org/2000/svg" viewBox="0 0 100 100" width="100" height="100"><defs><radialGradient id="halo" cx="50%" cy="52%" r="52%"><stop offset="0" stop-color="#FF8787" stop-opacity="0.9"/><stop offset="0.55" stop-color="#FF8787" stop-opacity="0.4"/><stop offset="1" stop-color="#FF8787" stop-opacity="0"/></radialGradient><linearGradient id="s" x1="0" y1="0" x2="0" y2="1"><stop offset="0" stop-color="#FF8787" stop-opacity="1"/><stop offset="1" stop-color="#C92A2A" stop-opacity="1"/></linearGradient></defs><circle cx="50" cy="52" r="52" fill="url(#halo)"/><ellipse cx="50" cy="92" rx="22" ry="4.5" fill="#000000" opacity="0.11"/><rect x="24" y="48" width="52" height="12" rx="4" fill="url(#s)"/><path d="M20 66 Q16 56 28 56 L74 56 Q82 56 80 66" fill="none" stroke="#74C0FC" stroke-width="5" stroke-linecap="round"/><rect x="32" y="44" width="6" height="10" fill="#C92A2A"/><rect x="62" y="44" width="6" height="10" fill="#C92A2A"/><rect x="28" y="50" width="44" height="3" fill="#FFFFFF" opacity="0.4"/><path d="M70 40 L70.72 43.28 L74 44 L70.72 44.72 L70 48 L69.28 44.72 L66 44 L69.28 43.28 Z" fill="#FFFFFF" opacity="0.8"/></svg>