<svg xmlns="http://www.w3.org/2000/svg" viewBox="0 0 100 100" width="100" height="100"><defs><radialGradient id="halo" cx="50%" cy="52%" r="52%"><stop offset="0" stop-color="#A5D8FF" stop-opacity="0.9"/><stop offset="0.55" stop-color="#A5D8FF" stop-opacity="0.4"/><stop offset="1" stop-color="#A5D8FF" stop-opacity="0"/></radialGradient><linearGradient id="s" x1="0" y1="0" x2="0" y2="1"><stop offset="0" stop-color="#FFFFFF" stop-opacity="1"/><stop offset="1" stop-color="#74C0FC" stop-opacity="1"/></linearGradient></defs><circle cx="50" cy="52" r="52" fill="url(#halo)"/><ellipse cx="50" cy="92" rx="22" ry="4.5" fill="#000000" opacity="0.11"/><g stroke="url(#s)" stroke-width="4" stroke-linecap="round"><path d="M50 16 L50 84"/><path d="M22 32 L78 68"/><path d="M78 32 L22 68"/><path d="M50 26 L42 32 M50 26 L58 32 M50 74 L42 68 M50 74 L58 68"/><path d="M30 38 L30 46 M30 38 L38 38 M70 62 L70 54 M70 62 L62 62"/><path d="M70 38 L62 38 M70 38 L70 46 M30 62 L38 62 M30 62 L30 54"/></g><circle cx="50" cy="50" r="4" fill="#FFFFFF"/><path d="M74 25.5 L74.81 29.19 L78.5 30 L74.81 30.81 L74 34.5 L73.19 30.81 L69.5 30 L73.19 29.19 Z" fill="#FFFFFF" opacity="0.9"/></svg>