<svg xmlns="http://www.w3.org/2000/svg" viewBox="0 0 100 100" width="100" height="100"><defs><radialGradient id="halo" cx="50%" cy="52%" r="52%"><stop offset="0" stop-color="#A5D8FF" stop-opacity="0.9"/><stop offset="0.55" stop-color="#A5D8FF" stop-opacity="0.4"/><stop offset="1" stop-color="#A5D8FF" stop-opacity="0"/></radialGradient><radialGradient id="s" cx="42%" cy="30%" r="80%"><stop offset="0" stop-color="#FFFFFF" stop-opacity="1"/><stop offset="100" stop-color="#D0E2F2" stop-opacity="1"/></radialGradient></defs><circle cx="50" cy="52" r="52" fill="url(#halo)"/><ellipse cx="50" cy="92" rx="22" ry="4.5" fill="#000000" opacity="0.11"/><circle cx="50" cy="64" r="20" fill="url(#s)"/><circle cx="50" cy="38" r="14" fill="url(#s)"/><path d="M38 26 h24 v-3 h-24 Z" fill="#343A40"/><rect x="42" y="14" width="16" height="10" rx="2" fill="#343A40"/><circle cx="46" cy="36" r="2" fill="#343A40"/><circle cx="54" cy="36" r="2" fill="#343A40"/><path d="M50 40 L60 42 L50 44 Z" fill="#FFA94D"/><circle cx="50" cy="58" r="2.4" fill="#343A40"/><circle cx="50" cy="68" r="2.4" fill="#343A40"/><path d="M72 36 L72.72 39.28 L76 40 L72.72 40.72 L72 44 L71.28 40.72 L68 40 L71.28 39.28 Z" fill="#FFFFFF" opacity="0.85"/></svg>