<svg xmlns="http://www.w3.org/2000/svg" viewBox="0 0 100 100" width="100" height="100"><defs><radialGradient id="halo" cx="50%" cy="52%" r="52%"><stop offset="0" stop-color="#E6B877" stop-opacity="0.9"/><stop offset="0.55" stop-color="#E6B877" stop-opacity="0.4"/><stop offset="1" stop-color="#E6B877" stop-opacity="0"/></radialGradient><linearGradient id="s" x1="0" y1="0" x2="0" y2="1"><stop offset="0" stop-color="#E6B877" stop-opacity="1"/><stop offset="1" stop-color="#A6713A" stop-opacity="1"/></linearGradient></defs><circle cx="50" cy="52" r="52" fill="url(#halo)"/><ellipse cx="50" cy="92" rx="22" ry="4.5" fill="#000000" opacity="0.11"/><path d="M66 82 C94 78 94 28 66 26 C84 40 82 62 60 64 C54 66 58 78 66 82 Z" fill="url(#s)"/><ellipse cx="44" cy="62" rx="17" ry="19" fill="url(#s)"/><ellipse cx="44" cy="66" rx="9" ry="11" fill="#FFE6C8" opacity="0.75"/><circle cx="42" cy="38" r="12" fill="url(#s)"/><circle cx="38" cy="28" r="5" fill="url(#s)"/><circle cx="40" cy="38" r="2.6" fill="#3B2B22"/><circle cx="32" cy="40" r="2.2" fill="#5A3A22"/><path d="M74 42 L74.72 45.28 L78 46 L74.72 46.72 L74 50 L73.28 46.72 L70 46 L73.28 45.28 Z" fill="#FFFFFF" opacity="0.8"/></svg>