<svg xmlns="http://www.w3.org/2000/svg" viewBox="0 0 100 100" width="100" height="100"><defs><radialGradient id="halo" cx="50%" cy="52%" r="52%"><stop offset="0" stop-color="#FF922B" stop-opacity="0.9"/><stop offset="0.55" stop-color="#FF922B" stop-opacity="0.4"/><stop offset="1" stop-color="#FF922B" stop-opacity="0"/></radialGradient><radialGradient id="s" cx="50%" cy="42%" r="70%"><stop offset="0" stop-color="#FFD8A8" stop-opacity="1"/><stop offset="45" stop-color="#FF922B" stop-opacity="1"/><stop offset="100" stop-color="#E8590C" stop-opacity="1"/></radialGradient></defs><circle cx="50" cy="52" r="52" fill="url(#halo)"/><ellipse cx="50" cy="92" rx="22" ry="4.5" fill="#000000" opacity="0.11"/><path d="M50 16 L60 42 L88 44 L64 60 L72 86 L50 70 L28 86 L36 60 L12 44 L40 42 Z" fill="url(#s)" stroke="#D9480F" stroke-width="2" stroke-linejoin="round"/><circle cx="50" cy="50" r="3" fill="#FFE0C2"/><circle cx="42" cy="44" r="2" fill="#FFE0C2"/><circle cx="58" cy="44" r="2" fill="#FFE0C2"/><circle cx="46" cy="58" r="2" fill="#FFE0C2"/><circle cx="54" cy="58" r="2" fill="#FFE0C2"/><path d="M74 32 L74.72 35.28 L78 36 L74.72 36.72 L74 40 L73.28 36.72 L70 36 L73.28 35.28 Z" fill="#FFFFFF" opacity="0.85"/></svg>