<svg xmlns="http://www.w3.org/2000/svg" viewBox="0 0 100 100" width="100" height="100">
  <defs>
    <radialGradient id="sHaloW" cx="50%" cy="48%" r="54%">
      <stop offset="0" stop-color="#FFEC99" stop-opacity="0.95"/>
      <stop offset="50%" stop-color="#FFC400" stop-opacity="0.45"/>
      <stop offset="100%" stop-color="#FFC400" stop-opacity="0"/>
    </radialGradient>
    <radialGradient id="sBody" cx="50%" cy="36%" r="68%">
      <stop offset="0" stop-color="#FFFDEB"/>
      <stop offset="34%" stop-color="#FFE066"/>
      <stop offset="100%" stop-color="#EC8C00"/>
    </radialGradient>
    <linearGradient id="sVol" x1="0" y1="0" x2="0" y2="1">
      <stop offset="42%" stop-color="#B36A00" stop-opacity="0"/>
      <stop offset="100%" stop-color="#9A5A00" stop-opacity="0.5"/>
    </linearGradient>
  </defs>
  <circle cx="50" cy="48" r="54" fill="url(#sHaloW)"/>
  <ellipse cx="50" cy="90" rx="22" ry="4.5" fill="#000000" opacity="0.10"/>
  <path d="M50 13 L58.8 37.9 L85.2 38.6 L64.3 54.6 L71.7 79.9 L50 65 L28.3 79.9 L35.7 54.6 L14.8 38.6 L41.2 37.9 Z"
        fill="#E67700" stroke="#E67700" stroke-width="12" stroke-linejoin="round" stroke-linecap="round"/>
  <path d="M50 13 L58.8 37.9 L85.2 38.6 L64.3 54.6 L71.7 79.9 L50 65 L28.3 79.9 L35.7 54.6 L14.8 38.6 L41.2 37.9 Z"
        fill="url(#sBody)" stroke="url(#sBody)" stroke-width="5" stroke-linejoin="round" stroke-linecap="round"/>
  <path d="M50 13 L58.8 37.9 L85.2 38.6 L64.3 54.6 L71.7 79.9 L50 65 L28.3 79.9 L35.7 54.6 L14.8 38.6 L41.2 37.9 Z"
        fill="url(#sVol)"/>
  <path d="M50 16 L57 36 L50 50 L43 36 Z" fill="#FFFFFF" opacity="0.5"/>
  <ellipse cx="45" cy="30" rx="4" ry="8" fill="#FFFFFF" opacity="0.6" transform="rotate(-16 45 30)"/>
  <path d="M50 8 L51.7 14.3 L59 16 L51.7 17.7 L50 25 L48.3 17.7 L41 16 L48.3 14.3 Z" fill="#FFFFFF"/>
  <path d="M81 39 L82 43.5 L86.5 44.5 L82 45.5 L81 50 L80 45.5 L75.5 44.5 L80 43.5 Z" fill="#FFFFFF" opacity="0.85"/>
</svg>
