<svg xmlns="http://www.w3.org/2000/svg" viewBox="0 0 100 100" width="100" height="100"><defs><radialGradient id="halo" cx="50%" cy="52%" r="52%"><stop offset="0" stop-color="#FFD43B" stop-opacity="0.9"/><stop offset="0.55" stop-color="#FFD43B" stop-opacity="0.4"/><stop offset="1" stop-color="#FFD43B" stop-opacity="0"/></radialGradient><radialGradient id="s" cx="50%" cy="46%" r="65%"><stop offset="0" stop-color="#FFFDEB" stop-opacity="1"/><stop offset="50" stop-color="#FFD43B" stop-opacity="1"/><stop offset="100" stop-color="#F59F00" stop-opacity="1"/></radialGradient></defs><circle cx="50" cy="52" r="52" fill="url(#halo)"/><ellipse cx="50" cy="92" rx="22" ry="4.5" fill="#000000" opacity="0.11"/><g stroke="#FCC419" stroke-width="5" stroke-linecap="round"><path d="M50 8 L50 18"/><path d="M50 82 L50 92"/><path d="M8 50 L18 50"/><path d="M82 50 L92 50"/><path d="M20 20 L28 28"/><path d="M80 20 L72 28"/><path d="M20 80 L28 72"/><path d="M80 80 L72 72"/></g><circle cx="50" cy="50" r="24" fill="url(#s)"/><ellipse cx="42" cy="42" rx="6" ry="8" fill="#FFFFFF" opacity="0.4"/><path d="M74 25.5 L74.81 29.19 L78.5 30 L74.81 30.81 L74 34.5 L73.19 30.81 L69.5 30 L73.19 29.19 Z" fill="#FFFFFF" opacity="0.9"/></svg>