<svg xmlns="http://www.w3.org/2000/svg" viewBox="0 0 100 100" width="100" height="100"><defs><radialGradient id="halo" cx="50%" cy="52%" r="52%"><stop offset="0" stop-color="#FFD43B" stop-opacity="0.9"/><stop offset="0.55" stop-color="#FFD43B" stop-opacity="0.4"/><stop offset="1" stop-color="#FFD43B" stop-opacity="0"/></radialGradient><radialGradient id="c" cx="50%" cy="50%" r="70%"><stop offset="0" stop-color="#A6713A" stop-opacity="1"/><stop offset="100" stop-color="#5A3A22" stop-opacity="1"/></radialGradient></defs><circle cx="50" cy="52" r="52" fill="url(#halo)"/><ellipse cx="50" cy="92" rx="22" ry="4.5" fill="#000000" opacity="0.11"/><g fill="#FFC400"><ellipse cx="72.0" cy="50.0" rx="6" ry="11" transform="rotate(0 72.0 50.0)"/><ellipse cx="67.8" cy="62.9" rx="6" ry="11" transform="rotate(36 67.8 62.9)"/><ellipse cx="56.8" cy="70.9" rx="6" ry="11" transform="rotate(72 56.8 70.9)"/><ellipse cx="43.2" cy="70.9" rx="6" ry="11" transform="rotate(108 43.2 70.9)"/><ellipse cx="32.2" cy="62.9" rx="6" ry="11" transform="rotate(144 32.2 62.9)"/><ellipse cx="28.0" cy="50.0" rx="6" ry="11" transform="rotate(180 28.0 50.0)"/><ellipse cx="32.2" cy="37.1" rx="6" ry="11" transform="rotate(216 32.2 37.1)"/><ellipse cx="43.2" cy="29.1" rx="6" ry="11" transform="rotate(252 43.2 29.1)"/><ellipse cx="56.8" cy="29.1" rx="6" ry="11" transform="rotate(288 56.8 29.1)"/><ellipse cx="67.8" cy="37.1" rx="6" ry="11" transform="rotate(324 67.8 37.1)"/></g><circle cx="50" cy="50" r="13" fill="url(#c)"/><rect x="47" y="62" width="6" height="22" fill="#2F9E44"/><path d="M74 26 L74.72 29.28 L78 30 L74.72 30.72 L74 34 L73.28 30.72 L70 30 L73.28 29.28 Z" fill="#FFFFFF" opacity="0.85"/></svg>