<svg xmlns="http://www.w3.org/2000/svg" viewBox="0 0 100 100" width="100" height="100"><defs><radialGradient id="halo" cx="50%" cy="52%" r="52%"><stop offset="0" stop-color="#22B8CF" stop-opacity="0.9"/><stop offset="0.55" stop-color="#22B8CF" stop-opacity="0.4"/><stop offset="1" stop-color="#22B8CF" stop-opacity="0"/></radialGradient><linearGradient id="v" x1="0" y1="0" x2="0" y2="1"><stop offset="0.42" stop-color="#0B3D4A" stop-opacity="0"/><stop offset="1" stop-color="#0B3D4A" stop-opacity="0.5"/></linearGradient></defs><circle cx="50" cy="52" r="52" fill="url(#halo)"/><ellipse cx="50" cy="92" rx="22" ry="4.5" fill="#000000" opacity="0.11"/><circle cx="50" cy="52" r="28" fill="#FFF"/><path d="M50 52 L50.0 24.0 A28 28 0 0 1 78.0 52.0 Z" fill="#FF6B6B"/><path d="M50 52 L78.0 52.0 A28 28 0 0 1 50.0 80.0 Z" fill="#FFFFFF"/><path d="M50 52 L50.0 80.0 A28 28 0 0 1 22.0 52.0 Z" fill="#FF6B6B"/><path d="M50 52 L22.0 52.0 A28 28 0 0 1 50.0 24.0 Z" fill="#FFFFFF"/><circle cx="50" cy="52" r="28" fill="url(#v)"/><circle cx="50" cy="52" r="12" fill="#FFFFFF"/><ellipse cx="38" cy="40" rx="6" ry="9" fill="#FFFFFF" opacity="0.5"/><path d="M70 37 L70.9 41.1 L75 42 L70.9 42.9 L70 47 L69.1 42.9 L65 42 L69.1 41.1 Z" fill="#FFFFFF" opacity="0.9"/><path d="M40 73 L40.54 75.46 L43 76 L40.54 76.54 L40 79 L39.46 76.54 L37 76 L39.46 75.46 Z" fill="#FFFFFF" opacity="0.8"/></svg>