<svg xmlns="http://www.w3.org/2000/svg" viewBox="0 0 100 100" width="100" height="100"><defs><radialGradient id="halo" cx="50%" cy="52%" r="52%"><stop offset="0" stop-color="#63E6BE" stop-opacity="0.9"/><stop offset="0.55" stop-color="#63E6BE" stop-opacity="0.4"/><stop offset="1" stop-color="#63E6BE" stop-opacity="0"/></radialGradient><linearGradient id="d" x1="0" y1="0" x2="0" y2="1"><stop offset="0" stop-color="#C3FAE8" stop-opacity="1"/><stop offset="1" stop-color="#20C997" stop-opacity="1"/></linearGradient><linearGradient id="s" x1="0" y1="0" x2="0" y2="1"><stop offset="0" stop-color="#CED4DA" stop-opacity="1"/><stop offset="1" stop-color="#868E96" stop-opacity="1"/></linearGradient></defs><circle cx="50" cy="52" r="52" fill="url(#halo)"/><ellipse cx="50" cy="92" rx="22" ry="4.5" fill="#000000" opacity="0.11"/><path d="M30 38 C30 26 70 26 70 38 Z" fill="url(#d)"/><ellipse cx="50" cy="46" rx="34" ry="12" fill="url(#s)"/><circle cx="34" cy="46" r="3" fill="#FFD43B"/><circle cx="50" cy="50" r="3" fill="#FF6B6B"/><circle cx="66" cy="46" r="3" fill="#74C0FC"/><path d="M40 56 L36 74 L64 74 L60 56 Z" fill="#FFF3BF" opacity="0.45"/><path d="M74 30 L74.72 33.28 L78 34 L74.72 34.72 L74 38 L73.28 34.72 L70 34 L73.28 33.28 Z" fill="#FFFFFF" opacity="0.85"/></svg>