<svg xmlns="http://www.w3.org/2000/svg" viewBox="0 0 100 100" width="100" height="100"><defs><radialGradient id="halo" cx="50%" cy="52%" r="52%"><stop offset="0" stop-color="#FF8787" stop-opacity="0.9"/><stop offset="0.55" stop-color="#FF8787" stop-opacity="0.4"/><stop offset="1" stop-color="#FF8787" stop-opacity="0"/></radialGradient><radialGradient id="b" cx="40%" cy="40%" r="80%"><stop offset="0" stop-color="#FFC9C9" stop-opacity="1"/><stop offset="50" stop-color="#FA5252" stop-opacity="1"/><stop offset="100" stop-color="#C92A2A" stop-opacity="1"/></radialGradient></defs><circle cx="50" cy="52" r="52" fill="url(#halo)"/><ellipse cx="50" cy="92" rx="22" ry="4.5" fill="#000000" opacity="0.11"/><path d="M18 54 A32 24 0 0 1 82 54 Z" fill="url(#b)"/><path d="M18 54 Q26 63 34 54 Q42 63 50 54 Q58 63 66 54 Q74 63 82 54 L82 54 L18 54 Z" fill="url(#b)"/><rect x="48" y="16" width="4" height="10" rx="2" fill="#5A3A2A"/><path d="M50 26 L50 80 Q50 86 43 84" fill="none" stroke="#5A3A2A" stroke-width="4" stroke-linecap="round"/><path d="M34 50 Q42 24 50 22 M50 22 Q58 24 66 50" stroke="#FFFFFF" stroke-width="1.6" opacity="0.45" fill="none"/><path d="M30 33 L30.9 37.1 L35 38 L30.9 38.9 L30 43 L29.1 38.9 L25 38 L29.1 37.1 Z" fill="#FFFFFF" opacity="0.9"/><path d="M70 36 L70.72 39.28 L74 40 L70.72 40.72 L70 44 L69.28 40.72 L66 40 L69.28 39.28 Z" fill="#FFFFFF" opacity="0.8"/></svg>